<?xml version="1.0" encoding="UTF-8"?>
<svg version="1.1" xmlns="http://www.w3.org/2000/svg" width="512" height="512">
<path d="M0 0 C1.45108658 0.00273422 1.45108658 0.00273422 2.93148804 0.00552368 C17.26440977 0.05095174 31.21023917 0.55983928 45.3125 3.3125 C46.65803955 3.55395752 46.65803955 3.55395752 48.03076172 3.80029297 C97.3910106 12.7319841 142.33502623 36.62278819 178.3125 71.3125 C178.95509766 71.92786621 179.59769531 72.54323242 180.25976562 73.17724609 C189.43586539 82.00363353 197.78566554 91.04358004 205.3125 101.3125 C205.73724609 101.88178223 206.16199219 102.45106445 206.59960938 103.03759766 C213.11518015 111.77841821 218.94838547 120.82336328 224.3125 130.3125 C224.7146875 131.01971191 225.116875 131.72692383 225.53125 132.45556641 C238.54775099 155.57510937 247.281052 180.72419753 252.625 206.6875 C252.77235596 207.39801514 252.91971191 208.10853027 253.0715332 208.84057617 C256.05794017 224.48291051 256.68730954 240.11926093 256.625 256 C256.62226578 257.45108658 256.62226578 257.45108658 256.61947632 258.93148804 C256.57404826 273.26440977 256.06516072 287.21023917 253.3125 301.3125 C253.15152832 302.20952637 252.99055664 303.10655273 252.82470703 304.03076172 C242.04458567 363.60620667 208.06282448 421.71826418 159.3125 458.3125 C158.66055664 458.80314941 158.00861328 459.29379883 157.33691406 459.79931641 C147.34916885 467.27553647 137.20242643 474.22197916 126.3125 480.3125 C125.61108887 480.71033691 124.90967773 481.10817383 124.18701172 481.51806641 C101.06164286 494.54164812 75.90952498 503.27925668 49.9375 508.625 C49.22698486 508.77235596 48.51646973 508.91971191 47.78442383 509.0715332 C32.14252803 512.05785645 16.50542167 512.68882614 0.625 512.625 C-0.34338806 512.62284485 -1.31177612 512.6206897 -2.30950928 512.61846924 C-16.62643438 512.56738903 -30.61598845 512.18100217 -44.6875 509.3125 C-46.22664063 509.00650879 -46.22664063 509.00650879 -47.796875 508.69433594 C-89.08042788 500.29332858 -126.54984615 483.37134929 -159.6875 457.3125 C-160.64269531 456.56355469 -161.59789062 455.81460937 -162.58203125 455.04296875 C-169.96334325 449.0261098 -176.74599754 442.45990477 -183.5 435.75 C-184.38357178 434.87569336 -185.26714355 434.00138672 -186.17749023 433.10058594 C-194.41157441 424.82694838 -201.45178721 415.84304498 -208.25 406.375 C-208.80719727 405.59938721 -209.36439453 404.82377441 -209.93847656 404.0246582 C-222.02019903 387.10848556 -222.02019903 387.10848556 -222.6875 381.3125 C-221.87767067 378.82516705 -220.85411112 376.64572224 -219.6875 374.3125 C-220.76587307 371.91480947 -221.89070217 369.62768011 -223.125 367.3125 C-226.6875 360.55392857 -226.6875 360.55392857 -226.6875 358.3125 C-227.76 358.415625 -228.8325 358.51875 -229.9375 358.625 C-233.6875 358.3125 -233.6875 358.3125 -235.6796875 356.40625 C-238.34117242 352.30528491 -239.9332188 348.09418468 -241.5625 343.5 C-241.90764648 342.53078613 -242.25279297 341.56157227 -242.60839844 340.56298828 C-246.39427655 329.64838223 -249.34077745 318.62087955 -251.6875 307.3125 C-251.89922852 306.30171387 -252.11095703 305.29092773 -252.32910156 304.24951172 C-258.22284486 274.62667991 -258.51273163 240.96506937 -252.6875 211.3125 C-252.52652832 210.41692383 -252.36555664 209.52134766 -252.19970703 208.59863281 C-241.42111566 149.02128915 -207.43918146 90.90775443 -158.6875 54.3125 C-158.03555664 53.82185059 -157.38361328 53.33120117 -156.71191406 52.82568359 C-146.72416885 45.34946353 -136.57742643 38.40302084 -125.6875 32.3125 C-124.6353833 31.71574463 -124.6353833 31.71574463 -123.56201172 31.10693359 C-100.43664286 18.08335188 -75.28452498 9.34574332 -49.3125 4 C-48.24672729 3.77896606 -48.24672729 3.77896606 -47.15942383 3.5534668 C-31.51708949 0.56705983 -15.88073907 -0.06230954 0 0 Z " fill="#010303" transform="translate(255.6875,-0.3125)"/>
<path d="M0 0 C1.06261677 -0.01091993 2.12523354 -0.02183987 3.22005081 -0.03309071 C6.78118061 -0.06101521 10.34022182 -0.03889562 13.90136719 -0.01687622 C16.45407332 -0.02636122 19.00676987 -0.03882467 21.55944824 -0.05404663 C27.77327899 -0.08266913 33.98633616 -0.07845737 40.20017719 -0.05815814 C45.25056629 -0.0423433 50.30078953 -0.04020801 55.35119629 -0.04782486 C56.07024493 -0.04889749 56.78929358 -0.04997012 57.53013158 -0.05107526 C58.99090804 -0.05331336 60.45168444 -0.05558285 61.9124608 -0.0578834 C75.60725593 -0.07783987 89.30172294 -0.05490073 102.99646425 -0.01728083 C114.74487744 0.01399339 126.49280648 0.00856109 138.24121094 -0.02371216 C151.88727667 -0.06118084 165.5330549 -0.0759173 179.17916489 -0.05442631 C180.63453924 -0.05219649 182.08991364 -0.0499959 183.54528809 -0.04782486 C184.26134256 -0.04674493 184.97739703 -0.045665 185.71515012 -0.04455235 C190.75894149 -0.03851069 195.80255037 -0.04870489 200.84631348 -0.06518173 C207.63623524 -0.0868755 214.42510143 -0.07141088 221.21498108 -0.03092194 C223.70868916 -0.02165615 226.20247411 -0.02434159 228.69615173 -0.03976059 C232.09730682 -0.0588538 235.49551766 -0.03494989 238.89648438 0 C240.38159956 -0.02342258 240.38159956 -0.02342258 241.89671707 -0.04731834 C245.61359299 0.02692016 248.33862677 0.08364766 251.40450424 2.30852711 C254.63130509 5.78305687 256.19850982 8.68478032 256.18995667 13.51843262 C256.20254013 14.58942703 256.2151236 15.66042145 256.22808838 16.76387024 C256.21122986 17.91839188 256.19437134 19.07291351 256.17700195 20.26242065 C256.18269699 21.49411484 256.18839203 22.72580902 256.19425964 23.99482727 C256.20344235 27.35704402 256.1859348 30.71702872 256.15540051 34.07897997 C256.12894631 37.60400941 256.13433347 41.12900528 256.13548279 44.65411377 C256.13267824 50.57046539 256.10669748 56.48635376 256.06567383 62.40255737 C256.01845885 69.23677823 256.0026813 76.07049272 256.00488049 82.90486491 C256.00690857 90.19247824 255.98608083 97.47989717 255.95854068 104.76745176 C255.95215566 106.86307868 255.9500184 108.9586741 255.94882393 111.05430984 C255.94524389 114.96110092 255.91608276 118.86747336 255.8840332 122.7741394 C255.88539276 123.9327095 255.88675232 125.0912796 255.88815308 126.28495789 C255.87535812 127.35031265 255.86256317 128.41566742 255.84938049 129.51330566 C255.84435296 130.43614664 255.83932543 131.35898762 255.83414555 132.30979347 C255.17970207 136.68360859 252.83337996 140.10119032 249.44824219 142.8888855 C247.41427243 143.26723433 247.41427243 143.26723433 245.0325489 143.27199554 C244.1239764 143.28105218 243.2154039 143.29010882 242.2792989 143.29943991 C241.27980147 143.29411198 240.28030403 143.28878406 239.2505188 143.28329468 C238.18975974 143.28938578 237.12900068 143.29547688 236.03609741 143.30175257 C232.46389906 143.31846796 228.89205385 143.3135945 225.31982422 143.30880737 C222.76594673 143.31614276 220.21207256 143.32472742 217.65820312 143.33447266 C211.4304797 143.35443714 205.20288729 143.36006612 198.97513618 143.35828477 C193.9137397 143.35697826 188.8523723 143.36077561 183.79098129 143.36820984 C182.33424088 143.37030899 180.87750046 143.37240659 179.42076004 143.37450266 C178.69574314 143.37554619 177.97072624 143.37658971 177.22373913 143.37766486 C163.50430117 143.3965772 149.78491664 143.39551411 136.06547104 143.38869554 C123.51096129 143.38312029 110.95665562 143.40394283 98.40219356 143.43705601 C85.51652543 143.47077938 72.6309551 143.48596297 59.745242 143.48133898 C52.50879813 143.47909278 45.27254285 143.48435909 38.03613663 143.50923157 C31.2316951 143.53241975 24.42774842 143.52967852 17.62327576 143.50930405 C15.12268114 143.50588163 12.62205826 143.51103563 10.12150192 143.52528763 C6.71381015 143.54337293 3.30757912 143.5308091 -0.10006714 143.51034546 C-1.09510313 143.52286331 -2.09013912 143.53538116 -3.11532772 143.54827833 C-7.74739034 143.48843615 -9.86223214 143.4134573 -13.64248848 140.53754425 C-16.30617665 136.84230814 -16.67942288 134.18999038 -16.71238708 129.7538147 C-16.72243271 128.69120926 -16.73247833 127.62860382 -16.74282837 126.53379822 C-16.74865936 125.36803757 -16.75449036 124.20227692 -16.76049805 123.00119019 C-16.77028183 121.77329269 -16.78006561 120.5453952 -16.79014587 119.2802887 C-16.82011909 115.20712229 -16.84179456 111.13399091 -16.86035156 107.0607605 C-16.86364888 106.36723386 -16.86694621 105.67370722 -16.87034345 104.95916462 C-16.90112311 98.41577685 -16.92782396 91.87238438 -16.94476223 85.32894516 C-16.96666376 76.96699644 -17.00862921 68.60569018 -17.0781998 60.24399829 C-17.12548691 54.36022894 -17.14970197 48.47663265 -17.15695912 42.59267926 C-17.16190841 39.08053633 -17.17691788 35.56911793 -17.21670341 32.05718231 C-17.26054067 28.13598504 -17.25666233 24.21560969 -17.2487793 20.29415894 C-17.26877991 19.13649521 -17.28878052 17.97883148 -17.30938721 16.78608704 C-17.29969406 15.7122023 -17.29000092 14.63831757 -17.28001404 13.53189087 C-17.28424598 12.6056982 -17.28847792 11.67950554 -17.2928381 10.72524643 C-14.85170044 1.38220004 -8.79857545 -0.13876723 0 0 Z " fill="#FBCA72" transform="translate(136.5517578125,184.11111450195313)"/>
<path d="M0 0 C1.32012345 3.96037036 0.18698086 6.65892472 -1 10.5 C-1.22856689 11.25120117 -1.45713379 12.00240234 -1.69262695 12.77636719 C-11.04752151 42.9437994 -24.78906528 70.60857645 -45 95 C-45.65355469 95.8559375 -46.30710937 96.711875 -46.98046875 97.59375 C-52.14277202 104.27074106 -57.99589977 110.20505842 -63.9375 116.1875 C-65.1893811 117.45327881 -65.1893811 117.45327881 -66.46655273 118.74462891 C-72.01112149 124.26156422 -77.78814483 129.25072953 -84 134 C-84.70455322 134.54358154 -85.40910645 135.08716309 -86.13500977 135.6472168 C-108.61007135 152.78246832 -133.33444653 165.47342384 -160.1875 174.1875 C-161.41218994 174.58670654 -162.63687988 174.98591309 -163.89868164 175.3972168 C-172.61451669 178.12849444 -172.61451669 178.12849444 -176 177 C-175.16597656 176.26136719 -174.33195312 175.52273438 -173.47265625 174.76171875 C-163.96184225 166.2336085 -156.11513375 157.02991378 -148.625 146.6875 C-147.99911987 145.82535889 -147.99911987 145.82535889 -147.3605957 144.94580078 C-141.97003541 137.6452 -141.97003541 137.6452 -141 129 C-141.95548981 127.04374022 -141.95548981 127.04374022 -144 126 C-147.32594755 124.99765814 -147.32594755 124.99765814 -151 126 C-153.8184776 128.65305905 -155.85049298 131.79663101 -158 135 C-162.65038935 141.58884733 -167.42579251 147.79968331 -172.921875 153.7109375 C-175.0417185 155.98808749 -175.0417185 155.98808749 -176.96484375 158.5234375 C-188.42930443 172.47443188 -207.44700851 182.24470085 -225 184 C-225 149.35 -225 114.7 -225 79 C-207.18 77.515 -207.18 77.515 -189 76 C-171.16720971 74.37883725 -154.04060635 72.14039907 -136.54785156 68.50292969 C-133.37471178 67.87657208 -130.20803641 67.4066525 -127 67 C-128.12250095 70.39666453 -129.24844192 73.79217913 -130.375 77.1875 C-130.69210937 78.14720703 -131.00921875 79.10691406 -131.3359375 80.09570312 C-131.8 81.49272461 -131.8 81.49272461 -132.2734375 82.91796875 C-132.69761963 84.19837036 -132.69761963 84.19837036 -133.13037109 85.50463867 C-134 88 -134 88 -135.11962891 90.5871582 C-136.37337498 94.02331251 -135.85993401 96.49411519 -135 100 C-132.12351775 102.29616964 -132.12351775 102.29616964 -128.5625 102.125 C-124.74522729 101.34502084 -124.74522729 101.34502084 -123.06640625 97.8828125 C-121.24600695 93.96175036 -120.00878465 89.93562041 -118.7734375 85.796875 C-118.57836105 85.14778168 -118.38328461 84.49868835 -118.18229675 83.82992554 C-116.96259435 79.76409101 -116.96259435 79.76409101 -115.80712891 75.6796875 C-112.63933313 64.23755478 -112.63933313 64.23755478 -108.72680664 61.28393555 C-106.15714719 60.23530136 -103.71287457 59.57154131 -101 59 C-99.60327185 58.5524769 -98.21090231 58.09102086 -96.82421875 57.61328125 C-95.44531893 57.17966704 -94.06641248 56.74607392 -92.6875 56.3125 C-57.49483115 44.87095404 -25.85399168 26.57215811 0 0 Z " fill="#70D6FB" transform="translate(489,312)"/>
<path d="M0 0 C0 34.65 0 69.3 0 105 C-3.71289496 105.61881583 -6.79134097 106.12151086 -10.44921875 106.2109375 C-11.7024292 106.25021362 -11.7024292 106.25021362 -12.98095703 106.2902832 C-13.87411621 106.31823975 -14.76727539 106.34619629 -15.6875 106.375 C-24.69636152 106.73575616 -33.65467665 107.40623608 -42.625 108.3125 C-44.37623169 108.47081299 -44.37623169 108.47081299 -46.1628418 108.63232422 C-47.25636963 108.74979004 -48.34989746 108.86725586 -49.4765625 108.98828125 C-50.9318335 109.13583862 -50.9318335 109.13583862 -52.41650391 109.28637695 C-55.60381765 110.16678879 -56.94588343 111.44635553 -59 114 C-59.27076301 116.14703124 -59.27076301 116.14703124 -58.75 118.25 C-58.5025 119.4875 -58.255 120.725 -58 122 C-55.13803838 122.95398721 -53.69240209 123.07505759 -50.76171875 122.9140625 C-49.94123047 122.87023437 -49.12074219 122.82640625 -48.27539062 122.78125 C-47.42138672 122.7296875 -46.56738281 122.678125 -45.6875 122.625 C-44.84509766 122.58117187 -44.00269531 122.53734375 -43.13476562 122.4921875 C-39.76434152 122.30245291 -36.49906487 122.08858197 -33.1706543 121.49780273 C-29.63554163 120.94277888 -26.20956459 120.78705352 -22.6328125 120.68359375 C-21.38902832 120.64548584 -20.14524414 120.60737793 -18.86376953 120.56811523 C-17.29997559 120.52501221 -15.73618164 120.48190918 -14.125 120.4375 C-9.13375 120.293125 -4.1425 120.14875 1 120 C1 131.22 1 142.44 1 154 C-34.64 154 -70.28 154 -107 154 C-106.34 150.37 -105.68 146.74 -105 143 C-104.46391696 139.39047748 -104.46391696 139.39047748 -103.953125 135.77734375 C-103 134 -103 134 -100.44140625 132.91015625 C-98.73791016 132.45962891 -98.73791016 132.45962891 -97 132 C-95.64828094 131.59863004 -94.2980792 131.19212437 -92.94921875 130.78125 C-90.79536113 130.13290505 -88.64141652 129.48653007 -86.48242188 128.85546875 C-84.63644231 128.29462128 -82.81533218 127.65326833 -81 127 C-79.60064987 124.20129973 -79.74734595 122.09501208 -80 119 C-81.57059223 116.88782424 -82.42674621 116.09172061 -85.05078125 115.671875 C-85.79714844 115.69765625 -86.54351562 115.7234375 -87.3125 115.75 C-88.10140625 115.77578125 -88.8903125 115.8015625 -89.703125 115.828125 C-92.51065641 116.03821238 -95.24246511 116.43435182 -98 117 C-95.97218965 108.75480772 -93.221364 100.97533513 -90 93.125 C-89.51797119 91.94969727 -89.03594238 90.77439453 -88.53930664 89.56347656 C-80.00650841 69.12686389 -69.47558248 49.86137292 -55 33 C-54.18015625 32.03449219 -53.3603125 31.06898437 -52.515625 30.07421875 C-39.7582893 15.39297184 -20.36125867 0 0 0 Z " fill="#70D6FB" transform="translate(248,16)"/>
<path d="M0 0 C3.6587264 3.04893867 7.11642843 6.09013075 10.375 9.5625 C22.14801141 21.40330226 36.38951237 30.13551069 51 38 C51.65758301 38.35900391 52.31516602 38.71800781 52.99267578 39.08789062 C67.08905976 46.72175946 82.32662105 53.26725526 97.72265625 57.72265625 C98.59688232 57.9757959 99.4711084 58.22893555 100.37182617 58.48974609 C101.99080222 58.94103192 103.61731708 59.36642488 105.2512207 59.76025391 C109.00607488 60.78617955 110.70385166 61.51148745 112.75 64.88671875 C113.19595459 66.24856811 113.60822628 67.62158695 114 69 C114.64663316 70.95111975 115.2952661 72.90157727 115.9453125 74.8515625 C116.2952124 75.93961182 116.6451123 77.02766113 117.00561523 78.14868164 C128.71455137 114.51150423 146.52289773 152.46637955 177 177 C172.73608036 178.42130655 169.46247329 176.95992388 165.3125 175.6875 C164.43255371 175.41824707 163.55260742 175.14899414 162.64599609 174.87158203 C139.04785946 167.40193563 116.09200076 156.53400646 96 142 C95.04609375 141.31808594 94.0921875 140.63617188 93.109375 139.93359375 C75.069792 126.73447477 57.13328379 111.17460336 44 93 C42.96384556 91.59482794 41.92735345 90.18990485 40.890625 88.78515625 C35.40708255 81.30809644 30.04979673 73.82206696 25.26953125 65.87109375 C24.12782563 63.86014186 24.12782563 63.86014186 22 63 C19.6670134 62.95977609 17.33293334 62.95679753 15 63 C13.63063499 60.59087645 12.27958007 58.17425815 10.9375 55.75 C10.35258789 54.72712891 10.35258789 54.72712891 9.75585938 53.68359375 C9.39169922 53.01972656 9.02753906 52.35585938 8.65234375 51.671875 C8.31195068 51.0644043 7.97155762 50.45693359 7.62084961 49.83105469 C6.82563015 47.4857358 7.11999456 46.29043321 8 44 C8.66 43.34 9.32 42.68 10 42 C10.61264964 35.46266796 9.11979837 30.70154502 6.6875 24.6875 C6.04096428 23.01429475 5.3977114 21.33981715 4.7578125 19.6640625 C4.45133789 18.86387695 4.14486328 18.06369141 3.82910156 17.23925781 C1.72082918 11.54518411 0 6.08236702 0 0 Z " fill="#70D6FB" transform="translate(22,312)"/>
<path d="M0 0 C51.96610571 10.65010817 102.43661885 43.54803022 133.7421875 86.29785156 C135.03039472 88.04113199 136.35456407 89.75167698 137.6875 91.4609375 C155.56168321 114.67511245 171.45772578 144.94381235 177 174 C176.53320312 176.17407227 176.53320312 176.17407227 176 178 C175.14019531 177.10539063 174.28039062 176.21078125 173.39453125 175.2890625 C156.24581663 157.65304327 136.31886788 144.30014908 114 134 C113.36562012 133.70287109 112.73124023 133.40574219 112.07763672 133.09960938 C104.11916287 129.39386299 96.03747553 126.20719072 87.75 123.3125 C86.90155518 123.01593506 86.05311035 122.71937012 85.17895508 122.41381836 C81.52539097 121.15415298 77.88862903 119.96855274 74.16796875 118.91796875 C73.10191406 118.61503906 72.03585937 118.31210938 70.9375 118 C70.03902344 117.773125 69.14054687 117.54625 68.21484375 117.3125 C63.65122337 114.60813237 62.7497277 108.41024808 61.4675293 103.56030273 C56.7047166 85.60816257 48.77356326 68.33205055 40 52 C39.68353516 51.40574219 39.36707031 50.81148437 39.04101562 50.19921875 C29.48406757 32.40352238 17.20014162 15.70326512 1.765625 2.57421875 C1.18296875 2.05472656 0.6003125 1.53523438 0 1 C0 0.67 0 0.34 0 0 Z " fill="#5FC1F5" transform="translate(313,22)"/>
<path d="M0 0 C-0.83402344 0.73863281 -1.66804687 1.47726563 -2.52734375 2.23828125 C-9.71852649 8.68643587 -16.17773848 15.25440612 -22 23 C-22.39783691 23.52287598 -22.79567383 24.04575195 -23.20556641 24.58447266 C-30.02252895 33.59307669 -35.71018322 43.02875645 -41 53 C-41.49814209 53.92256592 -41.49814209 53.92256592 -42.00634766 54.86376953 C-50.87078987 71.3628283 -58.18051919 89.12849676 -62.93603516 107.2512207 C-64.44588762 112.60166292 -64.44588762 112.60166292 -67.21191406 114.59008789 C-70.12169752 116.06154143 -72.95690068 117.1245553 -76.05859375 118.12890625 C-77.23824707 118.51876709 -78.41790039 118.90862793 -79.63330078 119.31030273 C-80.25368225 119.51388397 -80.87406372 119.71746521 -81.51324463 119.92721558 C-112.9836673 130.31703682 -143.14936418 145.20182989 -167.23828125 168.3515625 C-170.38932878 171.37335914 -173.65382362 174.19855001 -177 177 C-176.42135435 170.21698706 -174.67903616 164.18497425 -172.5 157.75 C-171.96596558 156.16880371 -171.96596558 156.16880371 -171.42114258 154.55566406 C-163.1520303 130.61866526 -151.37444863 108.13400059 -136 88 C-135.48131348 87.31905273 -134.96262695 86.63810547 -134.42822266 85.93652344 C-127.43918099 76.87578358 -119.81647248 68.54970248 -111.75 60.4375 C-110.93466797 59.61660889 -110.11933594 58.79571777 -109.27929688 57.94995117 C-103.81566024 52.55080661 -98.0973253 47.6679361 -92 43 C-91.28440918 42.45061768 -90.56881836 41.90123535 -89.83154297 41.33520508 C-72.36202705 28.10476676 -23.43598659 -7.81199553 0 0 Z " fill="#70D6FB" transform="translate(199,23)"/>
<path d="M0 0 C1.32012345 3.96037036 0.18698086 6.65892472 -1 10.5 C-1.22856689 11.25120117 -1.45713379 12.00240234 -1.69262695 12.77636719 C-11.04752151 42.9437994 -24.78906528 70.60857645 -45 95 C-45.65355469 95.8559375 -46.30710937 96.711875 -46.98046875 97.59375 C-52.14277202 104.27074106 -57.99589977 110.20505842 -63.9375 116.1875 C-64.7720874 117.03135254 -65.6066748 117.87520508 -66.46655273 118.74462891 C-72.01112149 124.26156422 -77.78814483 129.25072953 -84 134 C-84.70455322 134.54358154 -85.40910645 135.08716309 -86.13500977 135.6472168 C-108.61007135 152.78246832 -133.33444653 165.47342384 -160.1875 174.1875 C-161.41218994 174.58670654 -162.63687988 174.98591309 -163.89868164 175.3972168 C-172.61451669 178.12849444 -172.61451669 178.12849444 -176 177 C-175.16597656 176.26136719 -174.33195312 175.52273438 -173.47265625 174.76171875 C-163.96184225 166.2336085 -156.11513375 157.02991378 -148.625 146.6875 C-148.20774658 146.11273926 -147.79049316 145.53797852 -147.3605957 144.94580078 C-145.4691603 142.28366624 -143.88353881 139.74520264 -142.5234375 136.76953125 C-140.70592929 133.46539454 -139.24806293 132.8350638 -136 131 C-133.46567133 128.7843237 -131.11253752 126.39653945 -128.75 124 C-128.08540771 123.33009033 -127.42081543 122.66018066 -126.73608398 121.9699707 C-121.44349935 116.57559321 -116.64533321 110.96335434 -112 105 C-111.3503125 104.21753906 -110.700625 103.43507813 -110.03125 102.62890625 C-97.64730679 87.66497488 -87.32112173 70.52330342 -79 53 C-79.66 52.67 -80.32 52.34 -81 52 C-79.9584375 51.5875 -78.916875 51.175 -77.84375 50.75 C-48.24907802 38.89122855 -22.31815143 22.93810008 0 0 Z " fill="#5FC1F5" transform="translate(489,312)"/>
<path d="M0 0 C22.91118112 2.54568679 42.26381353 16.86167809 56.70361328 34.37158203 C65.79761515 45.79474446 73.3306863 58.0310877 80 71 C80.5252124 72.0194873 80.5252124 72.0194873 81.06103516 73.05957031 C85.63908025 82.07553861 89.41296054 91.36237006 93 100.8125 C93.39840088 101.85744629 93.79680176 102.90239258 94.20727539 103.97900391 C94.57199951 104.96175293 94.93672363 105.94450195 95.3125 106.95703125 C95.63863281 107.83335205 95.96476562 108.70967285 96.30078125 109.61254883 C97 112 97 112 97 116 C88.96014301 115.44525087 81.21495367 114.16579077 73.3125 112.625 C49.08151526 108.10788185 24.56349198 106.88949938 0 105 C0 70.35 0 35.7 0 0 Z " fill="#70D6FB" transform="translate(264,16)"/>
<path d="M0 0 C0.57363281 0.10957031 1.14726562 0.21914063 1.73828125 0.33203125 C8.75038142 1.64081474 15.7835137 2.77503208 22.83325195 3.85864258 C29.37216112 4.87229376 29.37216112 4.87229376 32.29370117 5.46655273 C41.25985061 7.27681201 50.33352975 7.99130223 59.43237305 8.80493164 C62.29587955 9.06101364 65.15870674 9.32379675 68.02148438 9.58789062 C69.88538087 9.75820469 71.74931214 9.92813877 73.61328125 10.09765625 C74.86399162 10.21174583 74.86399162 10.21174583 76.13996887 10.32814026 C83.42335 10.97801075 90.70229078 11.47873506 98 12 C98 46.65 98 81.3 98 117 C86.30246151 115.83024615 86.30246151 115.83024615 80.1875 113 C79.1651123 112.5364209 79.1651123 112.5364209 78.12207031 112.06347656 C61.89885208 104.43213521 48.73498924 92.18620248 38 78 C37.22269531 76.9996875 36.44539063 75.999375 35.64453125 74.96875 C22.57328554 57.74037665 13.81292619 38.0375229 6 18 C5.66677734 17.14921875 5.33355469 16.2984375 4.99023438 15.421875 C0 2.61050725 0 2.61050725 0 0 Z " fill="#70D7FB" transform="translate(150,379)"/>
<path d="M0 0 C1.11554764 -0.00574036 1.11554764 -0.00574036 2.25363159 -0.01159668 C3.82535151 -0.01431133 5.39711696 -0.00698128 6.96875 0.00976562 C9.33960588 0.03100293 11.70736846 0.0100475 14.078125 -0.015625 C25.23783625 -0.03543905 35.23695757 1.24130196 44.2421875 8.53125 C50.282756 14.99325351 53.3395791 21.10649218 53.40332031 29.89135742 C53.41292786 30.96314743 53.4225354 32.03493744 53.43243408 33.13920593 C53.43668396 34.29338516 53.44093384 35.44756439 53.4453125 36.63671875 C53.45101257 37.83049637 53.45671265 39.02427399 53.46258545 40.25422668 C53.47203189 42.78186152 53.47856802 45.30950865 53.48242188 47.8371582 C53.49210657 51.68658216 53.52312577 55.53546742 53.5546875 59.38476562 C53.56121996 61.84374684 53.56646948 64.30273186 53.5703125 66.76171875 C53.5826593 67.90577682 53.5950061 69.0498349 53.60772705 70.2285614 C53.58243874 79.3926452 52.20172718 87.2831612 46.2421875 94.53125 C38.6149273 101.46203432 30.96496649 104.00445742 20.81640625 103.9296875 C19.51229546 103.93399277 19.51229546 103.93399277 18.18183899 103.93838501 C16.35909365 103.94041332 14.53632592 103.93497043 12.71362305 103.92236328 C9.91992092 103.90619347 7.12764401 103.92230347 4.33398438 103.94140625 C2.55728848 103.93942551 0.78059346 103.93558534 -0.99609375 103.9296875 C-1.83046463 103.93576019 -2.66483551 103.94183289 -3.52449036 103.9480896 C-9.29115255 103.87770549 -9.29115255 103.87770549 -11.47600555 102.25563717 C-13.78814408 99.1451672 -13.19016371 95.17647464 -13.17773438 91.44165039 C-13.18620392 90.51129471 -13.19467346 89.58093903 -13.20339966 88.62239075 C-13.22683558 85.54109093 -13.22779024 82.46028852 -13.2265625 79.37890625 C-13.23366009 77.24043069 -13.24135849 75.10195705 -13.24963379 72.96348572 C-13.26309377 68.47861438 -13.26464053 63.99391911 -13.25878906 59.5090332 C-13.25289163 53.75731186 -13.28347978 48.00643423 -13.32390594 42.25487614 C-13.34973589 37.83767635 -13.35266462 33.42068097 -13.34901428 29.00341606 C-13.35070994 26.88268348 -13.3603951 24.7619419 -13.37815857 22.64128304 C-13.40025502 19.67702651 -13.3906936 16.71449397 -13.37304688 13.75024414 C-13.38631012 12.87166748 -13.39957336 11.99309082 -13.41323853 11.08789062 C-13.33112323 5.16175565 -13.33112323 5.16175565 -10.44473267 1.9874115 C-6.94836214 0.09257286 -3.88169268 -0.04456428 0 0 Z " fill="#030201" transform="translate(157.7578125,202.46875)"/>
<path d="M0 0 C1.82470965 5.47412896 0.40156571 10.86649447 -2 16 C-4.90560467 18.07908369 -7.73491993 19.28126159 -11.04296875 20.61328125 C-16.39880026 23.12493275 -18.99610794 27.35843574 -21.04794312 32.75747681 C-22.00191682 36.00652833 -22.27464169 38.63098241 -22.31884766 42.00537109 C-22.33890869 43.18220459 -22.35896973 44.35903809 -22.37963867 45.5715332 C-22.39099854 46.79316162 -22.4023584 48.01479004 -22.4140625 49.2734375 C-22.43170654 50.4075708 -22.44935059 51.5417041 -22.4675293 52.71020508 C-22.53041825 56.93166128 -22.57672775 61.15335135 -22.625 65.375 C-22.74875 74.82125 -22.8725 84.2675 -23 94 C-52.37 94 -81.74 94 -112 94 C-109.49421899 71.44797094 -94.64006786 53.0350426 -77.40625 39.0234375 C-54.33547582 20.88151303 -27.59005862 9.38783077 0 0 Z " fill="#70D6FB" transform="translate(128,154)"/>
<path d="M0 0 C29.37 0 58.74 0 89 0 C89.25 28.4375 89.25 28.4375 89.29785156 37.36499023 C89.32723816 39.72121109 89.35806695 42.07741458 89.390625 44.43359375 C89.39231689 46.24301453 89.39231689 46.24301453 89.39404297 48.08898926 C89.54977851 57.33341313 91.25818588 65.25818588 98 72 C101.09408195 74.11700344 104.16774561 75.7780655 107.8125 76.75 C110 78 110 78 111.3125 81.6875 C112.05993469 85.50849791 112.16176262 89.11769705 112 93 C75.09268878 86.18017075 33.08593003 61.11124009 11.36206055 30.203125 C7.89529117 25.07655968 5.19581013 19.79301127 3 14 C2.52433594 12.76056641 2.52433594 12.76056641 2.0390625 11.49609375 C0.51504291 7.25260802 0 4.67157598 0 0 Z " fill="#70D6FB" transform="translate(16,264)"/>
<path d="M0 0 C39.477469 11.00191759 82.01219492 31.83378408 104 68 C108.38229736 75.99009959 112 83.82071815 112 93 C82.63 93 53.26 93 23 93 C22.75 64.5625 22.75 64.5625 22.70214844 55.63500977 C22.67276184 53.27878891 22.64193305 50.92258542 22.609375 48.56640625 C22.60824707 47.36012573 22.60711914 46.15384521 22.60595703 44.91101074 C22.4519176 35.76726742 20.79070459 27.6020739 14 21 C10.74179295 19.07469583 7.33098919 17.54101359 3.828125 16.1171875 C2 15 2 15 0.75 11.3125 C-0.04922927 7.47760168 -0.16273467 3.9056321 0 0 Z " fill="#5FC2F5" transform="translate(384,155)"/>
<path d="M0 0 C29.37 0 58.74 0 89 0 C86.07631698 23.3894642 70.72983041 42.07512241 52.66064453 56.36254883 C34.64356884 70.17296505 0.56715568 93 -23 93 C-23.35955396 87.36698798 -23.05111876 81.90665806 -20 77 C-17.80008223 75.60544712 -15.66713988 74.76511836 -13.21875 73.88671875 C-7.42841381 71.57262312 -4.44460198 66.111998 -1.93789673 60.71199036 C-0.89430671 57.69438088 -0.72283166 55.29662219 -0.68115234 52.1081543 C-0.66109131 50.93119995 -0.64103027 49.75424561 -0.62036133 48.54162598 C-0.60900146 47.31488159 -0.5976416 46.08813721 -0.5859375 44.82421875 C-0.56829346 43.68907837 -0.55064941 42.55393799 -0.5324707 41.38439941 C-0.46950016 37.15224257 -0.4232469 32.9198503 -0.375 28.6875 C-0.189375 14.4871875 -0.189375 14.4871875 0 0 Z " fill="#5FC2F6" transform="translate(407,264)"/>
<path d="M0 0 C1.00546875 -0.04253906 2.0109375 -0.08507812 3.046875 -0.12890625 C7.71926429 0.87964607 10.31196693 2.93350506 13.25 6.5625 C16.34619917 11.68595445 18.9869564 17.00512366 21.625 22.375 C22.33444099 23.79436878 23.0453702 25.21299471 23.7578125 26.63085938 C24.82706987 28.75922468 25.89521122 30.88805442 26.95721436 33.02005005 C30.91105772 40.94342394 35.07445193 48.75431079 39.25 56.5625 C39.25364563 55.91992249 39.25729126 55.27734497 39.26104736 54.61529541 C39.30283407 47.93163796 39.37215289 41.24866967 39.45751953 34.56542969 C39.48575799 32.07070811 39.50695812 29.57589658 39.52099609 27.08105469 C39.54238499 23.49627534 39.58901708 19.91258082 39.640625 16.328125 C39.64185364 15.21133362 39.64308228 14.09454224 39.64434814 12.94390869 C39.66406677 11.90313171 39.6837854 10.86235474 39.70410156 9.79003906 C39.71742523 8.41770111 39.71742523 8.41770111 39.73101807 7.01763916 C40.41080638 3.80177596 41.71398078 2.58984876 44.25 0.5625 C46.90625 0.06640625 46.90625 0.06640625 49.75 0.125 C51.15765625 0.12693359 51.15765625 0.12693359 52.59375 0.12890625 C55.86807678 0.66339195 56.99841509 1.09899602 59.25 3.5625 C59.87170793 6.58720175 59.79583353 9.58950028 59.76757812 12.66796875 C59.7745874 13.59993073 59.78159668 14.5318927 59.78881836 15.49209595 C59.80645002 18.57836542 59.79475711 21.6637209 59.78125 24.75 C59.78394342 26.89087094 59.78782459 29.03174068 59.79284668 31.17260742 C59.79874875 35.66173945 59.79015579 40.15055335 59.77148438 44.63964844 C59.74869466 50.40035828 59.76181392 56.16032277 59.78577423 61.92100525 C59.80021294 66.34246459 59.79563503 70.76374656 59.78526306 75.18521118 C59.78259045 77.30954069 59.78588422 79.43388618 59.79518127 81.55819702 C59.80531499 84.52491039 59.78989007 87.49040864 59.76757812 90.45703125 C59.77567505 91.33920319 59.78377197 92.22137512 59.79211426 93.13027954 C59.70927601 99.06112793 59.70927601 99.06112793 57.38146973 101.60229492 C54.73955086 102.79245206 52.70957608 103.03035491 49.8125 103.0625 C48.88566406 103.0934375 47.95882812 103.124375 47.00390625 103.15625 C43.05177049 102.30415832 41.79526947 100.69606288 39.25 97.5625 C37.31410871 94.50068862 35.6223638 91.33042144 33.9375 88.125 C33.43766602 87.19155762 32.93783203 86.25811523 32.42285156 85.29638672 C31.31284889 83.22041983 30.20712735 81.14215996 29.10498047 79.06201172 C27.04914176 75.18357106 24.9805778 71.31207394 22.91015625 67.44140625 C19.01377913 60.15356229 15.1289608 52.85962833 11.25 45.5625 C11.24857498 46.2028569 11.24714996 46.84321381 11.24568176 47.50297546 C11.22598853 54.17063173 11.17172247 60.83737206 11.09741211 67.50463867 C11.07422144 69.99252755 11.05983393 72.48051474 11.05444336 74.96850586 C11.0451622 78.54603427 11.00418589 82.12201379 10.95703125 85.69921875 C10.96293022 87.36666389 10.96293022 87.36666389 10.96894836 89.0677948 C10.82314184 96.79269989 10.82314184 96.79269989 7.86425781 100.7668457 C4.99345575 102.73871246 3.63080477 103.19022692 0.1875 103.0625 C-0.64910156 103.0521875 -1.48570312 103.041875 -2.34765625 103.03125 C-5.44234775 102.42740776 -6.5903002 101.90426085 -8.75 99.5625 C-9.36866332 96.5376061 -9.28544062 93.53493777 -9.25170898 90.45703125 C-9.25711197 89.52506927 -9.26251495 88.5931073 -9.26808167 87.63290405 C-9.28060783 84.54661481 -9.26405191 81.46125134 -9.24609375 78.375 C-9.24624865 76.23413036 -9.24773608 74.09326043 -9.25050354 71.95239258 C-9.25188928 67.46325297 -9.23930004 62.97443219 -9.21655273 58.48535156 C-9.1881678 52.72473571 -9.1909032 46.96464982 -9.20364285 41.20399475 C-9.21059052 36.78254655 -9.20282114 32.36122132 -9.19038582 27.93978882 C-9.18586246 25.815465 -9.1855422 23.69112802 -9.18945122 21.56680298 C-9.19235448 18.60024861 -9.17589866 15.63443024 -9.15405273 12.66796875 C-9.15855438 11.78579681 -9.16305603 10.90362488 -9.16769409 9.99472046 C-9.15778946 9.18717316 -9.14788483 8.37962585 -9.13768005 7.54760742 C-9.13525016 6.84633224 -9.13282026 6.14505707 -9.13031673 5.42253113 C-8.1205188 0.48386971 -4.44261508 0.08456755 0 0 Z " fill="#020101" transform="translate(234.75,203.4375)"/>
<path d="M0 0 C1.30324219 -0.01836914 1.30324219 -0.01836914 2.6328125 -0.03710938 C11.341401 -0.05672331 18.74960505 1.52057003 26.125 6.4375 C28.00125275 9.3561154 27.59863618 11.81735023 27.25 15.1875 C25.90850661 18.36472119 25.00173566 19.77288291 21.9765625 21.44140625 C18.49865211 22.39309806 17.09962497 21.70759049 13.8125 20.3125 C5.30168182 17.19852944 -4.29062492 16.46936759 -12.75 20.1875 C-13.96260877 23.82532632 -14.14544552 26.36485999 -13.75 30.1875 C-9.27024516 36.74714102 -0.65665253 39.42384098 6.34765625 42.5859375 C15.33864058 46.78559728 25.05478192 52.55986523 28.69921875 62.3359375 C29.4673951 66.31302073 29.63405813 70.20527246 29.6875 74.25 C29.69797363 75.00595459 29.70844727 75.76190918 29.71923828 76.54077148 C29.59595039 84.30368625 27.39731081 90.82288744 22.12109375 96.5859375 C13.07967437 104.32493948 1.78528585 106.014654 -9.69580078 105.3828125 C-20.19705607 104.38435704 -27.95585808 99.98164192 -35.25 92.6875 C-37.14263642 89.53310597 -37.27874012 87.81314652 -36.75 84.1875 C-35.08237678 80.69343231 -34.00993978 79.36079319 -30.75 77.1875 C-24.60057868 77.06451157 -21.52489167 79.55000341 -16.9609375 83.49609375 C-11.88253523 87.38116121 -6.93529304 87.86562183 -0.75 87.1875 C3.65678625 86.0895635 6.64046469 85.10180296 9.25 81.1875 C9.64183567 78.84698669 9.64183567 78.84698669 9.625 76.3125 C9.66753906 75.04792969 9.66753906 75.04792969 9.7109375 73.7578125 C9.07323488 70.20180974 7.81518651 68.72813927 5.25 66.1875 C2.82621892 64.65239087 0.290555 63.44962366 -2.3125 62.25 C-3.75062493 61.55728549 -5.18812315 60.86326841 -6.625 60.16796875 C-7.67880859 59.66402588 -7.67880859 59.66402588 -8.75390625 59.14990234 C-19.35909889 54.03668447 -28.25097932 49.53180484 -32.75 38.1875 C-34.99559494 31.45071519 -34.8501151 22.88201164 -32.25 16.25 C-28.37272159 8.90501484 -21.34828299 4.15657697 -13.75 1.1875 C-9.1815503 -0.14354698 -4.72462159 0.0034436 0 0 Z " fill="#040301" transform="translate(341.75,202.8125)"/>
<path d="M0 0 C35.64 0 71.28 0 108 0 C108 11.22 108 22.44 108 34 C90.87886645 34 74.38126637 32.8967087 57.4375 30.75 C56.56858124 30.64117493 55.69966248 30.53234985 54.80441284 30.42022705 C40.71879193 28.64237533 26.76890422 26.53531748 13 23 C12.165896 22.83604736 11.33179199 22.67209473 10.47241211 22.50317383 C8.0163649 21.91440043 6.13436075 21.35418341 4 20 C2.34772234 17.09869469 1.8964943 14.21712965 1.4375 10.9375 C1.28732422 10.10927734 1.13714844 9.28105469 0.98242188 8.42773438 C0 2.86369528 0 2.86369528 0 0 Z " fill="#6FD5F9" transform="translate(141,342)"/>
<path d="M0 0 C35.31 0 70.62 0 107 0 C106.34 3.96 105.68 7.92 105 12 C104.7215625 14.2584375 104.7215625 14.2584375 104.4375 16.5625 C103 20 103 20 101.26220703 20.90625 C95.3684056 22.67084548 89.46013567 24.17758168 83.4375 25.4375 C82.42679443 25.64922852 81.41608887 25.86095703 80.37475586 26.07910156 C67.45753465 28.66196495 54.37962702 30.15277988 41.29711914 31.62329102 C39.39320326 31.84082098 37.49034033 32.06938398 35.59155273 32.32788086 C28.39680836 33.28275705 21.18243643 33.10855782 13.9375 33.0625 C7.0384375 33.0315625 7.0384375 33.0315625 0 33 C0 22.11 0 11.22 0 0 Z " fill="#70D6FB" transform="translate(264,342)"/>
<path d="M0 0 C34.88066388 -0.55660634 69.08519473 3.7740513 103 12 C103.66993993 15.12430761 104.33539364 18.24955386 105 21.375 C105.19078125 22.26445312 105.3815625 23.15390625 105.578125 24.0703125 C105.75859375 24.92109375 105.9390625 25.771875 106.125 26.6484375 C106.29257812 27.43395996 106.46015625 28.21948242 106.6328125 29.02880859 C107 31 107 31 107 33 C71.69 33 36.38 33 0 33 C0 22.11 0 11.22 0 0 Z " fill="#70D7FB" transform="translate(264,137)"/>
<path d="M0 0 C6.65424625 1.85446207 13.13882044 4.07116754 19.625 6.4375 C20.42397705 6.72568604 21.2229541 7.01387207 22.04614258 7.31079102 C23.61933818 7.89066258 25.18412044 8.49391319 26.73925781 9.12060547 C28.96168083 10.03245237 28.96168083 10.03245237 31.19042969 10.58642578 C33.68509815 11.42324495 35.09157451 12.16504639 37 14 C39.33763818 18.82120983 40.69637041 23.82832105 42 29 C42.33177246 30.2772998 42.66354492 31.55459961 43.00537109 32.87060547 C43.95689238 36.71459396 44.84012069 40.56959934 45.6875 44.4375 C45.83752472 45.11387512 45.98754944 45.79025024 46.14212036 46.48712158 C49.61133835 62.17597124 51.26772099 76.93674078 51 93 C41.76 93 32.52 93 23 93 C22.97421875 88.91753906 22.9484375 84.83507812 22.921875 80.62890625 C22.89014988 77.35247062 22.85449699 74.07612952 22.81620789 70.79976654 C22.77699469 67.35290112 22.7445363 63.9062889 22.72900391 60.45922852 C22.71081759 56.49462747 22.6608053 52.53072058 22.609375 48.56640625 C22.60814636 47.34417862 22.60691772 46.12195099 22.60565186 44.86268616 C22.45060529 35.73754644 20.77502966 27.58683439 14 21 C10.74179295 19.07469583 7.33098919 17.54101359 3.828125 16.1171875 C2 15 2 15 0.75 11.3125 C-0.04922927 7.47760168 -0.16273467 3.9056321 0 0 Z " fill="#70D6FB" transform="translate(384,155)"/>
<path d="M0 0 C9.24 0 18.48 0 28 0 C28 16.46629779 28 16.46629779 26.875 24.25 C26.68031128 25.62430176 26.68031128 25.62430176 26.48168945 27.02636719 C24.85492666 37.82075756 22.45439669 48.41825175 19.73681641 58.98535156 C19.05618908 61.77010513 18.50381168 64.54951343 17.98046875 67.3671875 C15.69190014 78.05321466 15.69190014 78.05321466 11.00488281 81.44287109 C6.07523065 84.08867731 0.88794631 85.74825052 -4.47949219 87.26806641 C-8.10275339 88.32023001 -11.59810907 89.66702046 -15.125 91 C-20.71710526 93 -20.71710526 93 -23 93 C-23.35955396 87.36698798 -23.05111876 81.90665806 -20 77 C-17.80008223 75.60544712 -15.66713988 74.76511836 -13.21875 73.88671875 C-7.42841381 71.57262312 -4.44460198 66.111998 -1.93789673 60.71199036 C-0.89430671 57.69438088 -0.72283166 55.29662219 -0.68115234 52.1081543 C-0.66128265 50.94732834 -0.64141296 49.78650238 -0.62094116 48.59049988 C-0.60938995 47.34762711 -0.59783875 46.10475433 -0.5859375 44.82421875 C-0.56657135 43.54392288 -0.5472052 42.26362701 -0.5272522 40.9445343 C-0.47606052 37.5531222 -0.43636593 34.16167055 -0.39910889 30.77008057 C-0.35898751 27.30430459 -0.3080375 23.83868873 -0.2578125 20.37304688 C-0.16018872 13.58209294 -0.08057072 6.79126338 0 0 Z " fill="#70D6FB" transform="translate(407,264)"/>
<path d="M0 0 C18 0 18 0 24 3 C27.55089026 6.79577924 28.11685761 10.46863659 28.16113281 15.53393555 C28.17074036 16.42553879 28.1803479 17.31714203 28.19024658 18.23576355 C28.19449646 19.19307877 28.19874634 20.15039398 28.203125 21.13671875 C28.20882507 22.13073196 28.21452515 23.12474518 28.22039795 24.14888 C28.22983893 26.252807 28.23637835 28.35674872 28.24023438 30.46069336 C28.24991165 33.65830778 28.2809323 36.85527149 28.3125 40.05273438 C28.31903344 42.1015587 28.32428257 44.15038761 28.328125 46.19921875 C28.3404718 47.14641281 28.3528186 48.09360687 28.36553955 49.06950378 C28.34631675 54.88140037 28.06928643 60.90164954 25 66 C20 69 20 69 0 69 C0 46.23 0 23.46 0 0 Z " fill="#FDCB73" transform="translate(164,220)"/>
<path d="M0 0 C9.98655327 6.7816995 18.30827194 15.75788448 26 25 C26.46132324 25.5475293 26.92264648 26.09505859 27.39794922 26.65917969 C65 71.39730056 65 71.39730056 65 87 C58.20500139 85.99092389 51.84539529 83.95286664 45.3125 81.875 C44.07693359 81.50890625 42.84136719 81.1428125 41.56835938 80.765625 C32.86538531 77.97383626 32.86538531 77.97383626 30.57397461 75.39526367 C29.796875 73.66015625 29.796875 73.66015625 29 70 C28.65839844 68.82566406 28.31679688 67.65132813 27.96484375 66.44140625 C27.80072998 65.82064209 27.63661621 65.19987793 27.4675293 64.56030273 C21.97638386 43.86290838 12.67557273 22.91092488 1.03125 4.91796875 C0 3 0 3 0 0 Z " fill="#6FD5FA" transform="translate(347,61)"/>
</svg>
