<?xml version="1.0" encoding="UTF-8"?>
<svg version="1.1" xmlns="http://www.w3.org/2000/svg" width="500" height="500">
<path d="M0 0 C1.14638443 -0.00807175 2.29276886 -0.01614349 3.47389221 -0.02445984 C5.90030434 -0.03824259 8.32673539 -0.0489905 10.75317383 -0.05688477 C13.18161902 -0.06829799 15.61004131 -0.08857584 18.03833008 -0.1184082 C65.40030657 -0.69832433 111.99048921 12.28740675 151.29394531 39.10009766 C153.5325909 40.59018414 155.85041441 41.91626482 158.19140625 43.23828125 C168.43606046 49.31886683 177.29269199 57.2136756 185.54296875 65.7421875 C187.70235087 67.93241794 189.90646984 69.94260222 192.25390625 71.92578125 C195.59434812 74.77737797 198.4084732 77.87803849 201.23828125 81.23046875 C202.98389111 83.21552067 204.82780294 84.99212327 206.75390625 86.80078125 C217.50006378 97.48494172 225.1097464 110.9411961 232.6640625 123.94628906 C233.82961609 125.94013329 235.01800351 127.91637806 236.22265625 129.88671875 C241.74953651 139.12011791 245.93854388 148.80598225 249.99169922 158.75927734 C250.87522668 160.92313115 251.78210624 163.07514786 252.6953125 165.2265625 C255.96624226 173.31421389 258.19827067 181.49624817 260.19140625 189.98828125 C260.42947998 190.99850342 260.66755371 192.00872559 260.9128418 193.04956055 C261.67123103 196.43639447 262.35309708 199.82906822 263.00390625 203.23828125 C263.13807953 203.93572449 263.27225281 204.63316772 263.41049194 205.35174561 C265.93861917 218.89272762 266.50235912 232.20629819 266.44995117 245.96289062 C266.44146684 249.33916872 266.47029288 252.71373216 266.50195312 256.08984375 C266.62455642 294.19162769 257.13765839 331.70491255 239.00390625 365.23828125 C238.57722656 366.04523438 238.15054687 366.8521875 237.7109375 367.68359375 C236.51559215 369.89477867 235.27311817 372.06856702 234.00390625 374.23828125 C233.6884082 374.77775391 233.37291016 375.31722656 233.04785156 375.87304688 C221.76923111 395.08694559 208.9802346 411.63656514 193.2355957 427.37719727 C191.32495908 429.29220884 189.43096499 431.22270626 187.53710938 433.15429688 C176.50503575 444.28680012 164.64864516 453.96713095 150.9140625 461.6015625 C147.78960842 463.3588058 144.78073236 465.25569647 141.75390625 467.17578125 C108.81080492 487.41558761 69.36369198 500.10189191 30.5859375 500.51171875 C28.96138641 500.53051086 28.96138641 500.53051086 27.30401611 500.54968262 C4.02532275 500.76685556 -18.25682496 500.720464 -40.99609375 495.23828125 C-41.95708984 495.02429688 -42.91808594 494.8103125 -43.90820312 494.58984375 C-71.73357575 488.35079826 -97.38075256 475.70573627 -121.22705078 460.36669922 C-122.82430147 459.34786225 -124.43858004 458.35584073 -126.0546875 457.3671875 C-135.56082629 451.52866538 -143.92597477 444.63628146 -151.6328125 436.57421875 C-153.62366368 434.60640221 -155.6512251 432.79354136 -157.7734375 430.97265625 C-162.06317118 427.2484758 -165.99048938 423.25814764 -169.87109375 419.11328125 C-170.56509277 418.37263428 -171.2590918 417.6319873 -171.97412109 416.86889648 C-179.78369341 408.43742728 -186.56844614 399.75300652 -192.4296875 389.84643555 C-193.91875302 387.3670579 -195.46262681 384.93624653 -197.0390625 382.51171875 C-214.76445624 355.06252068 -226.49314859 324.46745404 -231.99609375 292.23828125 C-232.27211426 290.72306885 -232.27211426 290.72306885 -232.55371094 289.17724609 C-234.41928099 277.49332383 -234.36829679 265.78747481 -234.36669922 253.98144531 C-234.37104295 250.4051034 -234.40738393 246.83002869 -234.4453125 243.25390625 C-234.65638667 200.13383223 -222.4397363 155.29988008 -198.10546875 119.359375 C-195.96642407 116.19438112 -194.01047983 112.95885364 -192.05859375 109.67578125 C-185.33354597 98.67360308 -177.20719627 88.25604729 -167.99609375 79.23828125 C-166.90688051 78.12953961 -165.81976463 77.01873499 -164.734375 75.90625 C-163.59251069 74.74603196 -162.45058276 73.58587654 -161.30859375 72.42578125 C-160.72787109 71.82830078 -160.14714844 71.23082031 -159.54882812 70.61523438 C-158.06883799 69.11813452 -156.53626593 67.67339394 -154.99609375 66.23828125 C-154.33609375 66.23828125 -153.67609375 66.23828125 -152.99609375 66.23828125 C-152.99609375 65.57828125 -152.99609375 64.91828125 -152.99609375 64.23828125 C-150.53360493 61.69112232 -147.71521762 59.50565195 -144.99609375 57.23828125 C-144.14015625 56.50738281 -143.28421875 55.77648438 -142.40234375 55.0234375 C-141.50515625 54.26933594 -140.60796875 53.51523437 -139.68359375 52.73828125 C-138.45189453 51.701875 -138.45189453 51.701875 -137.1953125 50.64453125 C-132.72471963 47.13377406 -127.81195613 44.24352091 -122.99609375 41.23828125 C-122.10398193 40.67351074 -121.21187012 40.10874023 -120.29272461 39.52685547 C-84.11488762 16.66827164 -43.34484025 0.29783501 0 0 Z " fill="#85D9FD" transform="translate(233.99609375,-0.23828125)"/>
<path d="M0 0 C3.1875 2.25 3.1875 2.25 5.16375732 4.35749817 C9.83804815 7.28304604 14.34643406 6.81241211 19.75488281 6.7800293 C21.50921127 6.79312637 21.50921127 6.79312637 23.29898071 6.80648804 C27.16301789 6.83087785 31.02652061 6.82745262 34.890625 6.82421875 C37.57154236 6.83665874 40.25239801 6.85074931 42.93328857 6.86714172 C49.26785632 6.90252481 55.60230939 6.9185654 61.93696475 6.9269169 C71.2479503 6.93989429 80.55884089 6.978113 89.8697319 7.02101612 C90.55159286 7.02415481 91.23345381 7.02729349 91.93597722 7.03052729 C93.2949213 7.03680664 94.65386509 7.04315019 96.01280856 7.04955989 C100.6440619 7.0705799 105.27526138 7.08029565 109.90655518 7.08683777 C112.31693549 7.09384994 114.72731556 7.10095053 117.13769531 7.1081543 C118.24833344 7.10762558 119.35897156 7.10709686 120.50326538 7.10655212 C122.00903641 7.11256439 122.00903641 7.11256439 123.54522705 7.11869812 C124.42273243 7.1199554 125.30023781 7.12121267 126.20433426 7.12250805 C128.1875 7.25 128.1875 7.25 129.1875 8.25 C129.28761296 11.23866642 129.32623975 14.19910453 129.3125 17.1875 C129.31636719 18.02474609 129.32023437 18.86199219 129.32421875 19.72460938 C129.32228516 20.92633789 129.32228516 20.92633789 129.3203125 22.15234375 C129.31918457 22.88960693 129.31805664 23.62687012 129.31689453 24.38647461 C129.1875 26.25 129.1875 26.25 128.1875 28.25 C121.2575 28.25 114.3275 28.25 107.1875 28.25 C114.29602801 43.13284034 121.40006145 57.99008124 129.19921875 72.52734375 C134.58993427 82.6159202 134.58993427 82.6159202 134.1875 88.25 C134.8475 88.25 135.5075 88.25 136.1875 88.25 C149.38125335 112.99561739 149.38125335 112.99561739 152.60546875 120.58984375 C154.31022953 124.53394461 156.18503424 128.35560573 158.125 132.1875 C160.15234375 136.21484375 160.15234375 136.21484375 161.15771484 138.23071289 C161.85290897 139.59390649 162.57279425 140.94474777 163.31494141 142.28295898 C167.62202605 150.23368746 167.33085016 158.38090534 165.28125 167.109375 C164.33723173 170.19766335 163.32845116 173.22953556 162.1875 176.25 C161.5275 176.25 160.8675 176.25 160.1875 176.25 C160.01734375 176.84167969 159.8471875 177.43335938 159.671875 178.04296875 C158.1705033 182.93839882 156.63603648 186.37039646 153.1875 190.25 C152.754375 191.03375 152.32125 191.8175 151.875 192.625 C148.36643649 198.08276545 143.81196932 202.07722243 138.1875 205.25 C137.341875 206.03375 136.49625 206.8175 135.625 207.625 C125.30356702 216.42622192 112.10305819 216.43019111 99.3125 216.4375 C97.63220703 216.45586914 97.63220703 216.45586914 95.91796875 216.47460938 C86.84110074 216.49049654 78.39669854 216.05184095 70.4375 211.3125 C69.52355469 210.78011719 68.60960937 210.24773437 67.66796875 209.69921875 C66.84941406 209.22097656 66.03085937 208.74273437 65.1875 208.25 C64.053125 207.71375 62.91875 207.1775 61.75 206.625 C59.00834235 205.15386663 57.34058097 203.4725352 55.1875 201.25 C54.3625 200.755 53.5375 200.26 52.6875 199.75 C50.03251763 198.15701058 48.14852974 196.64681413 46.1875 194.25 C46.1875 192.93 46.1875 191.61 46.1875 190.25 C45.589375 190.01925781 44.99125 189.78851563 44.375 189.55078125 C37.80199971 185.64219358 34.82453399 174.75012601 32.90234375 167.74609375 C29.75615309 152.35898643 33.89436759 142.61798646 41.1875 129.25 C42.00974572 127.70675764 42.83009673 126.1625041 43.6484375 124.6171875 C44.80805565 122.42978548 45.96964115 120.24382613 47.14428711 118.06445312 C49.89776593 112.92741164 52.17587968 107.72208622 54.1875 102.25 C54.5175 101.59 54.8475 100.93 55.1875 100.25 C55.8475 100.25 56.5075 100.25 57.1875 100.25 C57.32285156 99.67894531 57.45820313 99.10789062 57.59765625 98.51953125 C59.48659132 91.40491952 62.64385 85.43477663 66.21386719 79.03027344 C67.88486546 75.97487739 69.44585963 72.86608657 71 69.75 C71.48702393 68.77353516 71.48702393 68.77353516 71.98388672 67.77734375 C75.74541676 60.18559643 79.36414752 52.52518402 82.98828125 44.8671875 C84.67782091 41.30522354 86.40840762 37.76831714 88.1875 34.25 C89.18799244 32.2502463 90.1880527 30.25027625 91.1875 28.25 C80.17372715 28.26486247 69.16041 28.30640009 58.14687729 28.38209057 C53.03291701 28.41639596 47.91925659 28.44147607 42.80517578 28.44555664 C37.87064773 28.44983198 32.93679653 28.47823103 28.00247955 28.52343178 C26.11905101 28.53643129 24.23554157 28.5407058 22.35207367 28.53615379 C19.71541572 28.53126511 17.08074923 28.55726117 14.44433594 28.59057617 C13.66390427 28.58195053 12.8834726 28.57332489 12.07939148 28.56443787 C8.60127364 28.63821546 6.63610884 28.85567118 3.98581696 31.18528748 C1.46226695 35.48595053 1.64408223 39.02229603 1.70648193 43.92463684 C1.70135538 45.39499855 1.70135538 45.39499855 1.69612527 46.89506453 C1.68953185 50.18269967 1.71154727 53.46952004 1.73339844 56.75708008 C1.7345266 59.11246725 1.73389368 61.46785583 1.73162842 63.82324219 C1.73047912 70.22162523 1.75402379 76.61970931 1.78192425 83.01802278 C1.80627909 89.02598078 1.80841567 95.03397461 1.81253174 101.04197332 C1.82128361 112.94104322 1.8478962 124.84000336 1.88574219 136.73901367 C1.9224651 148.2969508 1.95077547 159.8548581 1.96777344 171.4128418 C1.96882433 172.12542012 1.96987523 172.83799845 1.97095796 173.57217006 C1.97617816 177.14700973 1.98123298 180.72184961 1.98620558 184.29668963 C2.02766424 213.94786784 2.09921149 243.59892348 2.1875 273.25 C-5.0725 273.25 -12.3325 273.25 -19.8125 273.25 C-19.81796844 268.77533928 -19.81796844 268.77533928 -19.82354736 264.21028137 C-19.85881604 236.86138145 -19.91383396 209.51257658 -19.99042095 182.16376405 C-20.00043854 178.58012371 -20.01028265 174.99648291 -20.02001953 171.4128418 C-20.0219609 170.69939642 -20.02390228 169.98595104 -20.02590248 169.25088611 C-20.05693271 157.69535254 -20.07390597 146.13983885 -20.08569422 134.58427147 C-20.0981005 122.72923049 -20.12559001 110.87429387 -20.16711307 99.01931876 C-20.19000545 92.3596751 -20.20540737 85.70015677 -20.20438385 79.04047585 C-20.2036405 72.77533985 -20.22146042 66.51053401 -20.25366783 60.2454834 C-20.26220366 57.94325452 -20.26389196 55.64098876 -20.25830269 53.33875084 C-20.25169685 50.20032354 -20.26950221 47.06295725 -20.29351807 43.92463684 C-20.28575765 43.00926441 -20.27799723 42.09389197 -20.27000165 41.15078098 C-20.32577462 37.04616245 -20.49652491 34.78566135 -22.62030792 31.18528748 C-25.78236491 28.39379427 -28.772253 28.54446955 -32.79394531 28.59057617 C-33.99451065 28.57485062 -33.99451065 28.57485062 -35.21932983 28.55880737 C-37.86015541 28.53004672 -40.4996708 28.53634975 -43.140625 28.54296875 C-44.97338505 28.52985427 -46.80613064 28.51455081 -48.63885498 28.49714661 C-53.45906174 28.45725429 -58.27889079 28.44710345 -63.09924316 28.44311523 C-68.01940398 28.43379176 -72.93934213 28.39638316 -77.859375 28.36132812 C-87.51040623 28.29670922 -97.16127138 28.26350443 -106.8125 28.25 C-106.00688629 29.85239029 -106.00688629 29.85239029 -105.18499756 31.4871521 C-104.46670077 32.91897855 -103.74846253 34.35083437 -103.03027344 35.78271484 C-102.67790619 36.48319443 -102.32553894 37.18367401 -101.9624939 37.90538025 C-98.1954511 45.42183749 -94.70065544 53.0562213 -91.22900391 60.71337891 C-90.41237581 62.5114898 -89.58907292 64.30656452 -88.765625 66.1015625 C-88.29286133 67.14135254 -87.82009766 68.18114258 -87.33300781 69.25244141 C-85.71811428 72.43607384 -83.81005448 75.29545812 -81.8125 78.25 C-80.86779129 80.91479155 -80.38812355 83.46781953 -79.8125 86.25 C-79.1525 86.25 -78.4925 86.25 -77.8125 86.25 C-76.45810332 88.95879335 -76.74748549 91.25933268 -76.8125 94.25 C-76.1525 94.25 -75.4925 94.25 -74.8125 94.25 C-74.4825 95.57 -74.1525 96.89 -73.8125 98.25 C-73.1525 98.25 -72.4925 98.25 -71.8125 98.25 C-71.56604736 98.84425781 -71.31959473 99.43851562 -71.06567383 100.05078125 C-69.92604886 102.78694501 -68.77561087 105.51843885 -67.625 108.25 C-67.23763672 109.18457031 -66.85027344 110.11914062 -66.45117188 111.08203125 C-64.33418723 116.08581313 -62.05644896 120.68487064 -59.09106445 125.234375 C-51.33644471 137.4593398 -45.41046455 149.58042636 -47.8125 164.25 C-48.56585276 167.18895176 -49.48813011 169.49531063 -50.8125 172.25 C-51.17232895 173.57642829 -51.51219704 174.90884116 -51.8125 176.25 C-52.4725 176.25 -53.1325 176.25 -53.8125 176.25 C-53.8125 177.57 -53.8125 178.89 -53.8125 180.25 C-54.4725 180.25 -55.1325 180.25 -55.8125 180.25 C-56.01875 181.260625 -56.225 182.27125 -56.4375 183.3125 C-57.70118249 187.79948857 -60.35886195 191.1623725 -63.8125 194.25 C-64.4725 194.25 -65.1325 194.25 -65.8125 194.25 C-65.88210937 194.8275 -65.95171875 195.405 -66.0234375 196 C-68.29438556 202.47557468 -77.8446645 207.31843168 -83.8125 210.25 C-94.79464083 214.71562956 -104.28741334 216.61197019 -116.125 216.625 C-117.28451172 216.64949219 -118.44402344 216.67398438 -119.63867188 216.69921875 C-127.50072184 216.72573494 -133.64129554 215.43620754 -140.8125 212.25 C-141.91722656 211.79238281 -143.02195313 211.33476562 -144.16015625 210.86328125 C-158.95009955 203.77687676 -172.30215012 190.16306554 -178.0625 174.625 C-178.65464571 172.83622649 -179.23903081 171.04484827 -179.8125 169.25 C-180.225 168.156875 -180.6375 167.06375 -181.0625 165.9375 C-184.25573562 150.23742489 -178.76252012 140.72665681 -171.33398438 127.07177734 C-169.31269682 123.32305437 -167.43274237 119.51303944 -165.5625 115.6875 C-163.33766031 111.19574463 -161.02076902 106.76834497 -158.61743164 102.36962891 C-155.465881 96.59749935 -152.83055268 90.91322562 -150.73828125 84.6640625 C-149.54640901 81.55614247 -147.85434641 79.00026962 -146.015625 76.2421875 C-144.74845999 74.14395972 -143.91327486 72.10959213 -143.0625 69.8125 C-141.27128114 65.09346557 -139.02093515 60.74317914 -136.625 56.3125 C-131.65994911 47.12460191 -127.20972711 37.72015105 -122.8125 28.25 C-123.89519165 28.25785522 -123.89519165 28.25785522 -124.99975586 28.26586914 C-128.24982849 28.28657358 -131.49988728 28.29963918 -134.75 28.3125 C-136.45446289 28.32506836 -136.45446289 28.32506836 -138.19335938 28.33789062 C-139.27294922 28.34111328 -140.35253906 28.34433594 -141.46484375 28.34765625 C-142.96519165 28.35551147 -142.96519165 28.35551147 -144.49584961 28.36352539 C-146.8125 28.25 -146.8125 28.25 -147.8125 27.25 C-147.91130797 25.77347336 -147.94329245 24.29232764 -147.9453125 22.8125 C-147.94724609 21.47058594 -147.94724609 21.47058594 -147.94921875 20.1015625 C-147.94535156 19.16054687 -147.94148438 18.21953125 -147.9375 17.25 C-147.94330078 15.83847656 -147.94330078 15.83847656 -147.94921875 14.3984375 C-147.94792969 13.50382812 -147.94664062 12.60921875 -147.9453125 11.6875 C-147.94418457 10.86121094 -147.94305664 10.03492187 -147.94189453 9.18359375 C-147.8125 7.25 -147.8125 7.25 -146.8125 6.25 C-145.25489682 6.15282538 -143.69289464 6.12535398 -142.13226318 6.12542725 C-141.12000168 6.12286423 -140.10774017 6.12030121 -139.06480408 6.11766052 C-137.94481522 6.11976028 -136.82482635 6.12186005 -135.67089844 6.12402344 C-134.49860184 6.1221553 -133.32630524 6.12028717 -132.1184845 6.11836243 C-129.56262177 6.11434714 -127.00675544 6.11228256 -124.45088959 6.11190033 C-120.4084006 6.11076212 -116.3660034 6.09793876 -112.32354736 6.08233643 C-111.64185635 6.07976357 -110.96016534 6.07719072 -110.25781703 6.0745399 C-108.86350498 6.06927298 -107.46919299 6.0639875 -106.07488108 6.05868387 C-96.66042116 6.02355441 -87.24607382 5.99702036 -77.83154297 5.99951172 C-71.48597811 6.0011007 -65.14072473 5.98505363 -58.79525971 5.94880509 C-55.43644366 5.93034432 -52.07814754 5.92100216 -48.71929169 5.93328094 C-44.96960082 5.942869 -41.22124949 5.92178017 -37.47167969 5.89355469 C-36.35978775 5.90375137 -35.24789581 5.91394806 -34.10231018 5.92445374 C-27.93760632 5.91398928 -27.93760632 5.91398928 -22.78302002 2.79180908 C-22.13274841 1.95301208 -21.48247681 1.11421509 -20.8125 0.25 C-14.35834772 -2.40759212 -6.32280919 -3.49889659 0 0 Z " fill="#FA725B" transform="translate(257.8125,111.75)"/>
<path d="M0 0 C4.62 0 9.24 0 14 0 C19.41638288 10.21121362 24.79173063 20.43456157 29.90625 30.80078125 C31.47118334 33.96516852 33.08681399 37.1001291 34.71875 40.23046875 C35.18023437 41.12580322 35.64171875 42.0211377 36.1171875 42.94360352 C37.01911836 44.6925277 37.93017511 46.43678458 38.8515625 48.17553711 C41.12948338 52.62437747 42.59850171 55.86286032 42 61 C42.66 61 43.32 61 44 61 C57.19375335 85.74561739 57.19375335 85.74561739 60.41796875 93.33984375 C62.12272953 97.28394461 63.99753424 101.10560573 65.9375 104.9375 C67.96484375 108.96484375 67.96484375 108.96484375 68.97021484 110.98071289 C69.66540897 112.34390649 70.38529425 113.69474777 71.12744141 115.03295898 C75.43452605 122.98368746 75.14335016 131.13090534 73.09375 139.859375 C72.14973173 142.94766335 71.14095116 145.97953556 70 149 C69.34 149 68.68 149 68 149 C67.82984375 149.59167969 67.6596875 150.18335938 67.484375 150.79296875 C65.9830033 155.68839882 64.44853648 159.12039646 61 163 C60.566875 163.78375 60.13375 164.5675 59.6875 165.375 C56.17893649 170.83276545 51.62446932 174.82722243 46 178 C44.7315625 179.175625 44.7315625 179.175625 43.4375 180.375 C33.11606702 189.17622192 19.91555819 189.18019111 7.125 189.1875 C6.00480469 189.19974609 4.88460937 189.21199219 3.73046875 189.22460938 C-5.34639926 189.24049654 -13.79080146 188.80184095 -21.75 184.0625 C-22.66394531 183.53011719 -23.57789063 182.99773437 -24.51953125 182.44921875 C-25.33808594 181.97097656 -26.15664063 181.49273437 -27 181 C-28.7015625 180.195625 -28.7015625 180.195625 -30.4375 179.375 C-33.17915765 177.90386663 -34.84691903 176.2225352 -37 174 C-38.2375 173.2575 -38.2375 173.2575 -39.5 172.5 C-42.15498237 170.90701058 -44.03897026 169.39681413 -46 167 C-46 165.68 -46 164.36 -46 163 C-46.598125 162.76925781 -47.19625 162.53851563 -47.8125 162.30078125 C-54.38550029 158.39219358 -57.36296601 147.50012601 -59.28515625 140.49609375 C-62.43134691 125.10898643 -58.29313241 115.36798646 -51 102 C-50.17775428 100.45675764 -49.35740327 98.9125041 -48.5390625 97.3671875 C-47.37944435 95.17978548 -46.21785885 92.99382613 -45.04321289 90.81445312 C-42.28973407 85.67741164 -40.01162032 80.47208622 -38 75 C-37.67 74.34 -37.34 73.68 -37 73 C-36.34 73 -35.68 73 -35 73 C-34.86464844 72.42894531 -34.72929687 71.85789062 -34.58984375 71.26953125 C-32.70090868 64.15491952 -29.54365 58.18477663 -25.97363281 51.78027344 C-24.30263454 48.72487739 -22.74164037 45.61608657 -21.1875 42.5 C-20.86281738 41.84902344 -20.53813477 41.19804687 -20.20361328 40.52734375 C-16.44208324 32.93559643 -12.82335248 25.27518402 -9.19921875 17.6171875 C-6.34540543 11.60463783 -3.3384391 5.75592949 0 0 Z " fill="#FB7159" transform="translate(350,139)"/>
<path d="M0 0 C3.1875 2.25 3.1875 2.25 5.16375732 4.35749817 C9.83804815 7.28304604 14.34643406 6.81241211 19.75488281 6.7800293 C21.50921127 6.79312637 21.50921127 6.79312637 23.29898071 6.80648804 C27.16301789 6.83087785 31.02652061 6.82745262 34.890625 6.82421875 C37.57154236 6.83665874 40.25239801 6.85074931 42.93328857 6.86714172 C49.26785632 6.90252481 55.60230939 6.9185654 61.93696475 6.9269169 C71.2479503 6.93989429 80.55884089 6.978113 89.8697319 7.02101612 C90.55159286 7.02415481 91.23345381 7.02729349 91.93597722 7.03052729 C93.2949213 7.03680664 94.65386509 7.04315019 96.01280856 7.04955989 C100.6440619 7.0705799 105.27526138 7.08029565 109.90655518 7.08683777 C112.31693549 7.09384994 114.72731556 7.10095053 117.13769531 7.1081543 C118.24833344 7.10762558 119.35897156 7.10709686 120.50326538 7.10655212 C122.00903641 7.11256439 122.00903641 7.11256439 123.54522705 7.11869812 C124.42273243 7.1199554 125.30023781 7.12121267 126.20433426 7.12250805 C128.1875 7.25 128.1875 7.25 129.1875 8.25 C129.28761296 11.23866642 129.32623975 14.19910453 129.3125 17.1875 C129.31636719 18.02474609 129.32023437 18.86199219 129.32421875 19.72460938 C129.32228516 20.92633789 129.32228516 20.92633789 129.3203125 22.15234375 C129.31918457 22.88960693 129.31805664 23.62687012 129.31689453 24.38647461 C129.1875 26.25 129.1875 26.25 128.1875 28.25 C127.33260986 28.2490181 126.47771973 28.24803619 125.59692383 28.24702454 C114.46043762 28.23614691 103.3239855 28.23890234 92.1875 28.25 C91.28692871 28.25082329 90.38635742 28.25164658 89.45849609 28.25249481 C78.23963717 28.2640558 67.02128591 28.30023149 55.80270386 28.38209343 C50.95336077 28.41691074 46.10435747 28.44157726 41.25488281 28.44555664 C36.45390747 28.44982317 31.6536316 28.47805109 26.85287476 28.52343178 C25.04759788 28.53636113 23.24223754 28.54073073 21.43692017 28.53615379 C18.94543378 28.53127878 16.45606889 28.55715953 13.96484375 28.59057617 C13.23161896 28.58195053 12.49839417 28.57332489 11.74295044 28.56443787 C8.36307737 28.64074931 6.56135781 28.91946078 3.99858475 31.18528748 C1.45753986 35.4852365 1.64399264 39.01525759 1.70648193 43.92463684 C1.70135538 45.39499855 1.70135538 45.39499855 1.69612527 46.89506453 C1.68953185 50.18269967 1.71154727 53.46952004 1.73339844 56.75708008 C1.7345266 59.11246725 1.73389368 61.46785583 1.73162842 63.82324219 C1.73047912 70.22162523 1.75402379 76.61970931 1.78192425 83.01802278 C1.80627909 89.02598078 1.80841567 95.03397461 1.81253174 101.04197332 C1.82128361 112.94104322 1.8478962 124.84000336 1.88574219 136.73901367 C1.9224651 148.2969508 1.95077547 159.8548581 1.96777344 171.4128418 C1.96882433 172.12542012 1.96987523 172.83799845 1.97095796 173.57217006 C1.97617816 177.14700973 1.98123298 180.72184961 1.98620558 184.29668963 C2.02766424 213.94786784 2.09921149 243.59892348 2.1875 273.25 C-5.0725 273.25 -12.3325 273.25 -19.8125 273.25 C-19.81796844 268.77533928 -19.81796844 268.77533928 -19.82354736 264.21028137 C-19.85881604 236.86138145 -19.91383396 209.51257658 -19.99042095 182.16376405 C-20.00043854 178.58012371 -20.01028265 174.99648291 -20.02001953 171.4128418 C-20.0219609 170.69939642 -20.02390228 169.98595104 -20.02590248 169.25088611 C-20.05693271 157.69535254 -20.07390597 146.13983885 -20.08569422 134.58427147 C-20.0981005 122.72923049 -20.12559001 110.87429387 -20.16711307 99.01931876 C-20.19000545 92.3596751 -20.20540737 85.70015677 -20.20438385 79.04047585 C-20.2036405 72.77533985 -20.22146042 66.51053401 -20.25366783 60.2454834 C-20.26220366 57.94325452 -20.26389196 55.64098876 -20.25830269 53.33875084 C-20.25169685 50.20032354 -20.26950221 47.06295725 -20.29351807 43.92463684 C-20.28187744 42.55157819 -20.28187744 42.55157819 -20.27000165 41.15078098 C-20.32554274 37.06322759 -20.50345248 34.78128698 -22.59523106 31.18528748 C-24.94405933 29.13517174 -25.75821625 28.62318079 -28.80778503 28.61076355 C-29.98609894 28.58783234 -29.98609894 28.58783234 -31.18821716 28.56443787 C-32.46826378 28.57737633 -32.46826378 28.57737633 -33.77416992 28.59057617 C-34.68069305 28.58009247 -35.58721619 28.56960876 -36.52120972 28.55880737 C-39.52880694 28.5299463 -42.53525691 28.53637301 -45.54296875 28.54296875 C-47.65213945 28.52983398 -49.76129762 28.51452435 -51.87043762 28.49714661 C-57.44551109 28.45716825 -63.02025914 28.44710493 -68.59545898 28.44311523 C-74.17377189 28.43391472 -79.75187859 28.39637143 -85.33007812 28.36132812 C-100.37566264 28.27409282 -115.42148542 28.21804437 -130.46728516 28.27587891 C-132.2674987 28.2815966 -132.2674987 28.2815966 -134.1040802 28.28742981 C-136.19369623 28.29599 -138.28330148 28.30915419 -140.37284851 28.32817078 C-142.51953125 28.33871716 -144.66640261 28.30122508 -146.8125 28.25 C-148.40187556 26.66062444 -147.94231143 25.01100154 -147.9453125 22.8125 C-147.94660156 21.91789062 -147.94789063 21.02328125 -147.94921875 20.1015625 C-147.94341797 18.69003906 -147.94341797 18.69003906 -147.9375 17.25 C-147.94136719 16.30898437 -147.94523437 15.36796875 -147.94921875 14.3984375 C-147.94792969 13.50382812 -147.94664062 12.60921875 -147.9453125 11.6875 C-147.94362061 10.44806641 -147.94362061 10.44806641 -147.94189453 9.18359375 C-147.8125 7.25 -147.8125 7.25 -146.8125 6.25 C-145.25489682 6.15282538 -143.69289464 6.12535398 -142.13226318 6.12542725 C-141.12000168 6.12286423 -140.10774017 6.12030121 -139.06480408 6.11766052 C-137.94481522 6.11976028 -136.82482635 6.12186005 -135.67089844 6.12402344 C-134.49860184 6.1221553 -133.32630524 6.12028717 -132.1184845 6.11836243 C-129.56262177 6.11434714 -127.00675544 6.11228256 -124.45088959 6.11190033 C-120.4084006 6.11076212 -116.3660034 6.09793876 -112.32354736 6.08233643 C-111.64185635 6.07976357 -110.96016534 6.07719072 -110.25781703 6.0745399 C-108.86350498 6.06927298 -107.46919299 6.0639875 -106.07488108 6.05868387 C-96.66042116 6.02355441 -87.24607382 5.99702036 -77.83154297 5.99951172 C-71.48597811 6.0011007 -65.14072473 5.98505363 -58.79525971 5.94880509 C-55.43644366 5.93034432 -52.07814754 5.92100216 -48.71929169 5.93328094 C-44.96960082 5.942869 -41.22124949 5.92178017 -37.47167969 5.89355469 C-36.35978775 5.90375137 -35.24789581 5.91394806 -34.10231018 5.92445374 C-27.93760632 5.91398928 -27.93760632 5.91398928 -22.78302002 2.79180908 C-21.80761261 1.53361359 -21.80761261 1.53361359 -20.8125 0.25 C-14.35834772 -2.40759212 -6.32280919 -3.49889659 0 0 Z " fill="#FBD05F" transform="translate(257.8125,111.75)"/>
<path d="M0 0 C3.91255029 3.91255029 5.01676181 6.02058291 7 11 C8.1881828 13.44343773 9.38959137 15.87363584 10.6171875 18.296875 C10.95622101 18.9711554 11.29525452 19.64543579 11.64456177 20.34014893 C13.07718212 23.18925902 14.51454977 26.03596526 15.95166016 28.8828125 C19.74486714 36.40331797 23.48445646 43.92159539 26.92236328 51.61328125 C28.52505206 55.16287016 30.24896356 58.64673874 32 62.125 C32.34248779 62.80949219 32.68497559 63.49398437 33.0378418 64.19921875 C35.19402296 68.48212088 37.43565339 72.69365766 39.89453125 76.8125 C41 79 41 79 42.28125 82.57421875 C44.60263331 88.91997041 48.01695937 94.73895804 51.23632812 100.66210938 C51.71908203 101.56380859 52.20183594 102.46550781 52.69921875 103.39453125 C53.14096436 104.20768799 53.58270996 105.02084473 54.0378418 105.85864258 C55 108 55 108 55 111 C36.85 111 18.7 111 0 111 C0 74.37 0 37.74 0 0 Z " fill="#85D6F8" transform="translate(361,152)"/>
<path d="M0 0 C0.99 0.33 1.98 0.66 3 1 C3.33 3.31 3.66 5.62 4 8 C4.66 8 5.32 8 6 8 C6.268125 9.2375 6.53625 10.475 6.8125 11.75 C7.65300784 15.16006039 8.75687316 17.26923689 11 20 C11.6875 22.25 11.6875 22.25 12 24 C12.66 24 13.32 24 14 24 C14.32685791 24.68924561 14.65371582 25.37849121 14.99047852 26.08862305 C16.51103915 29.28990185 18.03593511 32.48907992 19.5625 35.6875 C20.1080957 36.83114014 20.65369141 37.97478027 21.21582031 39.15307617 C24.56040958 46.12229219 28.01478081 52.95408592 31.890625 59.64453125 C33 62 33 62 33 66 C33.66 66 34.32 66 35 66 C36.35439668 68.70879335 36.06501451 71.00933268 36 74 C36.66 74 37.32 74 38 74 C39.44101533 76.68566588 40.87787947 79.37342059 42.3125 82.0625 C42.91868164 83.19075195 42.91868164 83.19075195 43.53710938 84.34179688 C45.92381098 88.82413892 48.03395014 93.31946086 50 98 C51.30631507 100.63838846 52.65527185 103.25042041 54.01171875 105.86328125 C55 108 55 108 55 110 C36.85 110 18.7 110 0 110 C0 73.7 0 37.4 0 0 Z " fill="#84D8FC" transform="translate(147,152)"/>
<path d="M0 0 C0 35.97 0 71.94 0 109 C-17.82 109 -35.64 109 -54 109 C-52.87610572 102.25663434 -52.87610572 102.25663434 -51.00390625 98.90625 C-50.61009766 98.18566406 -50.21628906 97.46507812 -49.81054688 96.72265625 C-49.39869141 95.98917969 -48.98683594 95.25570312 -48.5625 94.5 C-45.91674597 89.74349434 -43.52390969 85.26290123 -42 80 C-41.34 80 -40.68 80 -40 80 C-39.885354 79.11425293 -39.77070801 78.22850586 -39.65258789 77.31591797 C-39.01405473 74.07141462 -38.11526051 71.83959495 -36.55859375 68.9453125 C-36.06101562 68.00824463 -35.5634375 67.07117676 -35.05078125 66.10571289 C-34.51839844 65.12207764 -33.98601562 64.13844238 -33.4375 63.125 C-32.34137068 61.06437475 -31.24632297 59.00317379 -30.15234375 56.94140625 C-29.61464355 55.93223145 -29.07694336 54.92305664 -28.52294922 53.88330078 C-26.45679497 49.97158523 -24.46516824 46.02571013 -22.5 42.0625 C-22.19892334 41.45615723 -21.89784668 40.84981445 -21.58764648 40.22509766 C-20.72427766 38.48380477 -19.86213481 36.74190419 -19 35 C-17.66900043 32.33216457 -16.33456811 29.66605169 -15 27 C-14.49597656 25.99195313 -13.99195313 24.98390625 -13.47265625 23.9453125 C-13.00730469 23.01460937 -12.54195313 22.08390625 -12.0625 21.125 C-11.30066406 19.59746094 -11.30066406 19.59746094 -10.5234375 18.0390625 C-9.53702583 16.07129769 -8.54272573 14.10745931 -7.5390625 12.1484375 C-7.09304688 11.27445313 -6.64703125 10.40046875 -6.1875 9.5 C-5.78917969 8.7265625 -5.39085937 7.953125 -4.98046875 7.15625 C-3.93163622 5.03922266 -3.93163622 5.03922266 -3.48828125 2.78125 C-3.32714844 2.1934375 -3.16601562 1.605625 -3 1 C-1 0 -1 0 0 0 Z " fill="#84D7FA" transform="translate(353,153)"/>
<path d="M0 0 C0.33 0 0.66 0 1 0 C1 35.97 1 71.94 1 109 C-16.82 109 -34.64 109 -53 109 C-52.07056097 104.35280483 -50.8423731 101.40286037 -48.6875 97.25 C-45.94309557 91.90203818 -43.37952635 86.52050113 -41 81 C-40.34 81 -39.68 81 -39 81 C-38.87995605 80.26950439 -38.75991211 79.53900879 -38.63623047 78.78637695 C-38.00473398 76.02073249 -37.12219518 73.92790711 -35.8203125 71.41796875 C-35.38589844 70.56783203 -34.95148438 69.71769531 -34.50390625 68.84179688 C-34.04886719 67.96587891 -33.59382813 67.08996094 -33.125 66.1875 C-30.03420067 60.21522061 -27.2276101 54.35090165 -25 48 C-24.34 48 -23.68 48 -23 48 C-22.67 46.68 -22.34 45.36 -22 44 C-21.34 44 -20.68 44 -20 44 C-20.09410156 43.195625 -20.18820313 42.39125 -20.28515625 41.5625 C-19.89124384 36.64129289 -17.82549272 33.25531139 -15.4375 29 C-14.5169658 27.31058361 -13.59770459 25.62047299 -12.6796875 23.9296875 C-11.99664551 22.68203613 -11.99664551 22.68203613 -11.29980469 21.40917969 C-9.4717398 18.02087309 -7.75723909 14.58145645 -6.0625 11.125 C-4.19171491 7.30988545 -2.31193818 3.57000141 0 0 Z " fill="#85D8FC" transform="translate(138,153)"/>
<path d="M0 0 C41.25 0 82.5 0 125 0 C125 7.92 125 15.84 125 24 C83.75 24 42.5 24 0 24 C0 16.08 0 8.16 0 0 Z " fill="#324D61" transform="translate(186,386)"/>
<path d="M0 0 C1.28777344 0.01160156 2.57554687 0.02320313 3.90234375 0.03515625 C5.83787109 0.04869141 5.83787109 0.04869141 7.8125 0.0625 C8.81152344 0.07410156 9.81054688 0.08570313 10.83984375 0.09765625 C17.29488906 11.95094741 23.20831508 23.96724285 28.72753906 36.28662109 C31.54554098 42.64159245 31.54554098 42.64159245 35.11328125 48.5859375 C37.48917506 52.04227171 37.99736558 55.02567841 38.83984375 59.09765625 C39.49984375 59.09765625 40.15984375 59.09765625 40.83984375 59.09765625 C42.19424043 61.8064496 41.90485826 64.10698893 41.83984375 67.09765625 C42.49984375 67.09765625 43.15984375 67.09765625 43.83984375 67.09765625 C44.16984375 68.41765625 44.49984375 69.73765625 44.83984375 71.09765625 C45.49984375 71.09765625 46.15984375 71.09765625 46.83984375 71.09765625 C47.08629639 71.69191406 47.33274902 72.28617187 47.58666992 72.8984375 C48.72629489 75.63460126 49.87673288 78.3660951 51.02734375 81.09765625 C51.41470703 82.03222656 51.80207031 82.96679688 52.20117188 83.9296875 C54.31503703 88.92609604 56.59436734 93.48808862 59.5612793 98.02490234 C62.09988559 102.14038209 64.08939949 106.54282684 66.15234375 110.91015625 C66.60673828 111.85052734 67.06113281 112.79089844 67.52929688 113.75976562 C68.1722168 115.11231445 68.1722168 115.11231445 68.828125 116.4921875 C69.21524658 117.30534424 69.60236816 118.11850098 70.0012207 118.95629883 C70.83984375 121.09765625 70.83984375 121.09765625 70.83984375 124.09765625 C68.52984375 124.09765625 66.21984375 124.09765625 63.83984375 124.09765625 C59.62228381 116.29068359 55.46304976 108.45711378 51.46484375 100.53515625 C51.13162109 99.88160156 50.79839844 99.22804688 50.45507812 98.5546875 C48.57958107 94.81139563 47.061508 91.10200018 45.83984375 87.09765625 C45.17984375 87.09765625 44.51984375 87.09765625 43.83984375 87.09765625 C43.34484375 83.13765625 43.34484375 83.13765625 42.83984375 79.09765625 C42.17984375 79.09765625 41.51984375 79.09765625 40.83984375 79.09765625 C40.44410156 77.96714844 40.04835938 76.83664063 39.640625 75.671875 C37.83377712 70.85678947 35.47865697 66.42269612 33.02734375 61.91015625 C21.83984375 40.98523623 21.83984375 40.98523623 21.83984375 37.09765625 C21.17984375 37.09765625 20.51984375 37.09765625 19.83984375 37.09765625 C18.51984375 34.78765625 17.19984375 32.47765625 15.83984375 30.09765625 C15.50984375 30.09765625 15.17984375 30.09765625 14.83984375 30.09765625 C14.34484375 25.64265625 14.34484375 25.64265625 13.83984375 21.09765625 C13.17984375 21.09765625 12.51984375 21.09765625 11.83984375 21.09765625 C11.55109375 19.96328125 11.26234375 18.82890625 10.96484375 17.66015625 C10.59359375 16.48453125 10.22234375 15.30890625 9.83984375 14.09765625 C8.84984375 13.60265625 8.84984375 13.60265625 7.83984375 13.09765625 C7.83984375 49.39765625 7.83984375 85.69765625 7.83984375 123.09765625 C5.19984375 123.09765625 2.55984375 123.09765625 -0.16015625 123.09765625 C-0.49015625 87.45765625 -0.82015625 51.81765625 -1.16015625 15.09765625 C-6.38308273 25.53601576 -6.38308273 25.53601576 -11.5859375 35.984375 C-11.90755859 36.63212891 -12.22917969 37.27988281 -12.56054688 37.94726562 C-13.18959036 39.21478151 -13.81710238 40.48305818 -14.44335938 41.75195312 C-15.82031817 44.51995005 -17.23002787 47.21152111 -18.84765625 49.84765625 C-20.43663626 52.57162198 -20.79858615 54.98815336 -21.16015625 58.09765625 C-21.82015625 58.09765625 -22.48015625 58.09765625 -23.16015625 58.09765625 C-23.49015625 59.41765625 -23.82015625 60.73765625 -24.16015625 62.09765625 C-24.82015625 62.09765625 -25.48015625 62.09765625 -26.16015625 62.09765625 C-26.29292969 62.66871094 -26.42570312 63.23976562 -26.5625 63.828125 C-28.63918416 71.71409556 -32.4911754 78.83511467 -36.42993164 85.91918945 C-38.08800289 88.93030381 -39.58533306 91.68303493 -40.16015625 95.09765625 C-40.82015625 95.09765625 -41.48015625 95.09765625 -42.16015625 95.09765625 C-42.49015625 96.25265625 -42.82015625 97.40765625 -43.16015625 98.59765625 C-45.45000914 105.53358748 -48.95731538 111.93616412 -52.29345703 118.41259766 C-53.26428363 120.30010335 -54.2168003 122.19628078 -55.16015625 124.09765625 C-57.80015625 124.09765625 -60.44015625 124.09765625 -63.16015625 124.09765625 C-62.56929817 120.49138454 -61.5951476 117.61031797 -59.9375 114.359375 C-59.25941284 113.01758179 -59.25941284 113.01758179 -58.56762695 111.64868164 C-58.08253662 110.70371826 -57.59744629 109.75875488 -57.09765625 108.78515625 C-56.08974231 106.79822854 -55.08193045 104.81124904 -54.07421875 102.82421875 C-53.32833496 101.36097168 -53.32833496 101.36097168 -52.56738281 99.86816406 C-51.00294251 96.7881383 -49.46549496 93.69553678 -47.93286133 90.59960938 C-45.36699266 85.41698525 -42.73614218 80.28789026 -39.96289062 75.21289062 C-36.8116684 69.4424707 -34.17766168 63.75924736 -32.0859375 57.51171875 C-30.89406526 54.40379872 -29.20200266 51.84792587 -27.36328125 49.08984375 C-26.09611624 46.99161597 -25.26093111 44.95724838 -24.41015625 42.66015625 C-22.33025877 37.18058697 -19.58998202 32.15044654 -16.80761719 27.00610352 C-13.29879136 20.47131119 -10.11233367 13.80582814 -6.99145508 7.07836914 C-6.45621216 5.92776001 -6.45621216 5.92776001 -5.91015625 4.75390625 C-5.43835938 3.73006836 -5.43835938 3.73006836 -4.95703125 2.68554688 C-3.54231974 -0.13347385 -3.45839233 0.10687245 0 0 Z " fill="#36566B" transform="translate(139.16015625,138.90234375)"/>
<path d="M0 0 C4.62 0 9.24 0 14 0 C19.41638288 10.21121362 24.79173063 20.43456157 29.90625 30.80078125 C31.47118334 33.96516852 33.08681399 37.1001291 34.71875 40.23046875 C35.18023437 41.12580322 35.64171875 42.0211377 36.1171875 42.94360352 C37.01911836 44.6925277 37.93017511 46.43678458 38.8515625 48.17553711 C41.12948338 52.62437747 42.59850171 55.86286032 42 61 C42.66 61 43.32 61 44 61 C57.19375335 85.74561739 57.19375335 85.74561739 60.41796875 93.33984375 C62.12272953 97.28394461 63.99753424 101.10560573 65.9375 104.9375 C67.96484375 108.96484375 67.96484375 108.96484375 68.96826172 110.96435547 C69.68325233 112.3750492 70.40965109 113.77999664 71.14501953 115.18017578 C71.69391846 116.23760986 71.69391846 116.23760986 72.25390625 117.31640625 C72.58849854 117.9513501 72.92309082 118.58629395 73.26782227 119.24047852 C74 121 74 121 74 124 C71.69 124 69.38 124 67 124 C65.06074205 120.45929322 63.12390879 116.91726567 61.1875 113.375 C60.36668945 111.87646484 60.36668945 111.87646484 59.52929688 110.34765625 C52.40823982 97.31396395 52.40823982 97.31396395 50.375 91.625 C48.52259317 86.86882029 46.11986313 82.5866649 43.5625 78.1875 C40.81549261 73.44658124 38.41227276 68.86686374 36.5625 63.6875 C33.62495381 55.52091969 29.43366216 48.04557683 25.31396484 40.4296875 C23.60924109 37.27743726 21.91878307 34.11776862 20.23535156 30.95410156 C19.4788521 29.53243687 18.71930897 28.1123856 17.95605469 26.69433594 C17.6109082 26.04754883 17.26576172 25.40076172 16.91015625 24.734375 C16.61246338 24.17975586 16.31477051 23.62513672 16.00805664 23.05371094 C14.55380524 20.09096867 13.30009416 17.03355304 12 14 C11.67 49.97 11.34 85.94 11 123 C8.36 123 5.72 123 3 123 C2.67 87.36 2.34 51.72 2 15 C1.34 15 0.68 15 0 15 C-0.0928125 16.175625 -0.0928125 16.175625 -0.1875 17.375 C-1.5185716 23.31362712 -4.49029042 28.50317262 -7.625 33.6875 C-9.11171845 36.06574747 -9.11171845 36.06574747 -10.29296875 39.0859375 C-12.16550899 43.50969908 -14.42074417 47.7057882 -16.6875 51.9375 C-20.9485893 59.96099068 -25.06862587 68.0423253 -29.09619141 76.18505859 C-29.98436811 77.96860954 -30.88853808 79.74416734 -31.79296875 81.51953125 C-32.33566406 82.58558594 -32.87835938 83.65164062 -33.4375 84.75 C-33.91058594 85.67296875 -34.38367188 86.5959375 -34.87109375 87.546875 C-35.86868183 89.71464425 -36.5263436 91.66982828 -37 94 C-37.66 94 -38.32 94 -39 94 C-39.22558594 95.11761719 -39.45117188 96.23523438 -39.68359375 97.38671875 C-40.99570675 102.63401471 -43.46269954 107.10197046 -46.0625 111.8125 C-46.97192134 113.48466182 -47.87955425 115.15779789 -48.78515625 116.83203125 C-49.18613525 117.56139893 -49.58711426 118.2907666 -50.00024414 119.04223633 C-51.12383898 121.1218101 -51.12383898 121.1218101 -52 124 C-54.64 124 -57.28 124 -60 124 C-59.46964297 118.59540927 -57.531696 114.77416408 -54.9375 110.125 C-54.11832966 108.61667852 -53.30065616 107.10754327 -52.484375 105.59765625 C-52.06994141 104.83469238 -51.65550781 104.07172852 -51.22851562 103.28564453 C-46.60258597 94.6791355 -42.14904468 85.9683245 -38.69140625 76.8203125 C-38 75 -38 75 -37 73 C-36.34 73 -35.68 73 -35 73 C-34.86464844 72.42894531 -34.72929687 71.85789062 -34.58984375 71.26953125 C-32.70090868 64.15491952 -29.54365 58.18477663 -25.97363281 51.78027344 C-24.30263454 48.72487739 -22.74164037 45.61608657 -21.1875 42.5 C-20.86281738 41.84902344 -20.53813477 41.19804687 -20.20361328 40.52734375 C-16.44208324 32.93559643 -12.82335248 25.27518402 -9.19921875 17.6171875 C-6.34540543 11.60463783 -3.3384391 5.75592949 0 0 Z " fill="#35576D" transform="translate(350,139)"/>
<path d="M0 0 C0.88399947 0.00092179 1.76799894 0.00184359 2.67878628 0.00279331 C3.68985943 0.00141865 4.70093258 0.00004398 5.74264431 -0.00137234 C7.42038433 0.00402058 7.42038433 0.00402058 9.13201809 0.00952244 C10.30259258 0.00937641 11.47316708 0.00923038 12.67921352 0.00907993 C15.89807713 0.00965887 19.11689773 0.01468791 22.33575273 0.02165389 C25.6963417 0.02788826 29.05693143 0.02849129 32.41752529 0.0296793 C38.78529112 0.03279237 45.15303986 0.04100543 51.52079815 0.05102879 C58.76856499 0.06219068 66.01633263 0.06770057 73.26410592 0.07272422 C88.17703605 0.08318806 103.08995017 0.10078703 118.0028677 0.12304783 C117.99126614 1.29222752 117.97966457 2.4614072 117.96771145 3.66601658 C117.95832857 5.21419206 117.9492289 6.76236927 117.9403677 8.31054783 C117.92779934 9.4639365 117.92779934 9.4639365 117.91497707 10.64062595 C117.91014309 11.76694431 117.91014309 11.76694431 117.90521145 12.91601658 C117.89735622 13.945051 117.89735622 13.945051 117.88934231 14.994874 C118.01982943 17.44101653 118.47537933 19.73383582 119.0028677 22.12304783 C103.24370026 22.14637714 87.48453746 22.16402716 71.72535706 22.17486 C64.40859367 22.18002289 57.091841 22.18706545 49.7750845 22.19848728 C43.40003752 22.20843434 37.02499829 22.21490131 30.64994377 22.21713632 C27.27238756 22.21844339 23.89485354 22.22152902 20.51730442 22.22877789 C16.75279427 22.23598396 12.98833085 22.23703895 9.22381496 22.23657322 C8.09597088 22.2401685 6.96812679 22.24376377 5.80610561 22.24746799 C4.27687466 22.245406 4.27687466 22.245406 2.71675014 22.24330235 C1.82537633 22.24422414 0.93400251 22.24514593 0.01561737 22.24609566 C-1.9971323 22.12304783 -1.9971323 22.12304783 -2.9971323 21.12304783 C-3.09594027 19.64652119 -3.12792476 18.16537547 -3.1299448 16.68554783 C-3.13123386 15.79093845 -3.13252293 14.89632908 -3.13385105 13.97461033 C-3.12805027 12.56308689 -3.12805027 12.56308689 -3.1221323 11.12304783 C-3.12599949 10.1820322 -3.12986668 9.24101658 -3.13385105 8.27148533 C-3.13256199 7.37687595 -3.13127293 6.48226658 -3.1299448 5.56054783 C-3.12825291 4.32111423 -3.12825291 4.32111423 -3.12652683 3.05664158 C-2.94808855 0.39016769 -2.66677432 0.16430599 0 0 Z " fill="#FDCF5C" transform="translate(112.99713230133057,117.87695217132568)"/>
<path d="M0 0 C15.62878361 -0.02332938 31.25756253 -0.04097937 46.88635921 -0.05181217 C54.14258849 -0.05697505 61.39880696 -0.06401758 68.6550293 -0.07543945 C74.97733856 -0.08538656 81.29964001 -0.09185349 87.62195688 -0.09408849 C90.9715675 -0.09539556 94.32115574 -0.09848113 97.6707592 -0.10573006 C101.40413645 -0.1129362 105.13746658 -0.11399112 108.87084961 -0.11352539 C109.98934296 -0.11712067 111.1078363 -0.12071594 112.26022339 -0.12442017 C113.27129654 -0.1230455 114.28236969 -0.12167084 115.32408142 -0.12025452 C116.65008063 -0.12163721 116.65008063 -0.12163721 118.0028677 -0.12304783 C120 0 120 0 121 1 C121.10011296 3.98866642 121.13873975 6.94910453 121.125 9.9375 C121.12886719 10.77474609 121.13273437 11.61199219 121.13671875 12.47460938 C121.13542969 13.27576172 121.13414062 14.07691406 121.1328125 14.90234375 C121.13168457 15.63960693 121.13055664 16.37687012 121.12939453 17.13647461 C121 19 121 19 120 21 C80.4 21 40.8 21 0 21 C0.33 20.34 0.66 19.68 1 19 C1.09829064 16.34326192 1.13901663 13.7186515 1.125 11.0625 C1.12886719 10.33353516 1.13273437 9.60457031 1.13671875 8.85351562 C1.1308304 5.64142264 1.02261853 3.0678556 0 0 Z " fill="#FDD05C" transform="translate(266,119)"/>
<path d="M0 0 C8.6240027 6.08753132 8.6240027 6.08753132 10.1875 10.25 C10.45706266 12.94846414 10.60286437 15.48941236 10.625 18.1875 C10.65787109 18.89068359 10.69074219 19.59386719 10.72460938 20.31835938 C10.76562428 24.29680515 10.38400433 26.01192121 7.82421875 29.11328125 C6.95410156 29.81839844 6.08398438 30.52351563 5.1875 31.25 C3.888125 32.36375 3.888125 32.36375 2.5625 33.5 C-1.55042302 36.53057486 -5.19308133 36.49744117 -10.1875 36.625 C-11.49460938 36.67398438 -12.80171875 36.72296875 -14.1484375 36.7734375 C-18.67772516 36.12639641 -19.96099414 34.72945481 -22.8125 31.25 C-23.555 30.38375 -24.2975 29.5175 -25.0625 28.625 C-27.92761674 24.73662729 -27.97306333 21.58352974 -28 16.875 C-28.01417969 15.75351563 -28.02835938 14.63203125 -28.04296875 13.4765625 C-27.71226741 8.84674379 -26.54116806 6.14522076 -23.625 2.5625 C-17.41969759 -2.53963754 -7.2139381 -3.99202675 0 0 Z " fill="#334B5D" transform="translate(257.8125,111.75)"/>
<path d="M0 0 C0.88399947 0.00092179 1.76799894 0.00184359 2.67878628 0.00279331 C3.68985943 0.00141865 4.70093258 0.00004398 5.74264431 -0.00137234 C7.42038433 0.00402058 7.42038433 0.00402058 9.13201809 0.00952244 C10.30259258 0.00937641 11.47316708 0.00923038 12.67921352 0.00907993 C15.89807713 0.00965887 19.11689773 0.01468791 22.33575273 0.02165389 C25.6963417 0.02788826 29.05693143 0.02849129 32.41752529 0.0296793 C38.78529112 0.03279237 45.15303986 0.04100543 51.52079815 0.05102879 C58.76856499 0.06219068 66.01633263 0.06770057 73.26410592 0.07272422 C88.17703605 0.08318806 103.08995017 0.10078703 118.0028677 0.12304783 C117.99126614 1.29222752 117.97966457 2.4614072 117.96771145 3.66601658 C117.95832857 5.21419206 117.9492289 6.76236927 117.9403677 8.31054783 C117.92779934 9.4639365 117.92779934 9.4639365 117.91497707 10.64062595 C117.91014309 11.76694431 117.91014309 11.76694431 117.90521145 12.91601658 C117.89735622 13.945051 117.89735622 13.945051 117.88934231 14.994874 C118.01982943 17.44101653 118.47537933 19.73383582 119.0028677 22.12304783 C103.24370026 22.14637714 87.48453746 22.16402716 71.72535706 22.17486 C64.40859367 22.18002289 57.091841 22.18706545 49.7750845 22.19848728 C43.40003752 22.20843434 37.02499829 22.21490131 30.64994377 22.21713632 C27.27238756 22.21844339 23.89485354 22.22152902 20.51730442 22.22877789 C16.75279427 22.23598396 12.98833085 22.23703895 9.22381496 22.23657322 C8.09597088 22.2401685 6.96812679 22.24376377 5.80610561 22.24746799 C4.27687466 22.245406 4.27687466 22.245406 2.71675014 22.24330235 C1.82537633 22.24422414 0.93400251 22.24514593 0.01561737 22.24609566 C-1.9971323 22.12304783 -1.9971323 22.12304783 -2.9971323 21.12304783 C-3.09594027 19.64652119 -3.12792476 18.16537547 -3.1299448 16.68554783 C-3.13123386 15.79093845 -3.13252293 14.89632908 -3.13385105 13.97461033 C-3.12805027 12.56308689 -3.12805027 12.56308689 -3.1221323 11.12304783 C-3.12599949 10.1820322 -3.12986668 9.24101658 -3.13385105 8.27148533 C-3.13256199 7.37687595 -3.13127293 6.48226658 -3.1299448 5.56054783 C-3.12825291 4.32111423 -3.12825291 4.32111423 -3.12652683 3.05664158 C-2.94808855 0.39016769 -2.66677432 0.16430599 0 0 Z M0.0028677 3.12304783 C0.0028677 8.40304783 0.0028677 13.68304783 0.0028677 19.12304783 C37.6228677 19.12304783 75.2428677 19.12304783 114.0028677 19.12304783 C114.3328677 13.84304783 114.6628677 8.56304783 115.0028677 3.12304783 C77.0528677 3.12304783 39.1028677 3.12304783 0.0028677 3.12304783 Z " fill="#E0D284" transform="translate(112.99713230133057,117.87695217132568)"/>
<path d="M0 0 C15.62878361 -0.02332938 31.25756253 -0.04097937 46.88635921 -0.05181217 C54.14258849 -0.05697505 61.39880696 -0.06401758 68.6550293 -0.07543945 C74.97733856 -0.08538656 81.29964001 -0.09185349 87.62195688 -0.09408849 C90.9715675 -0.09539556 94.32115574 -0.09848113 97.6707592 -0.10573006 C101.40413645 -0.1129362 105.13746658 -0.11399112 108.87084961 -0.11352539 C109.98934296 -0.11712067 111.1078363 -0.12071594 112.26022339 -0.12442017 C113.27129654 -0.1230455 114.28236969 -0.12167084 115.32408142 -0.12025452 C116.65008063 -0.12163721 116.65008063 -0.12163721 118.0028677 -0.12304783 C120 0 120 0 121 1 C121.10011296 3.98866642 121.13873975 6.94910453 121.125 9.9375 C121.12886719 10.77474609 121.13273437 11.61199219 121.13671875 12.47460938 C121.13542969 13.27576172 121.13414062 14.07691406 121.1328125 14.90234375 C121.13168457 15.63960693 121.13055664 16.37687012 121.12939453 17.13647461 C121 19 121 19 120 21 C80.4 21 40.8 21 0 21 C0.33 20.34 0.66 19.68 1 19 C2.02935669 18.98969254 3.05871338 18.97938507 4.1192627 18.96876526 C13.88584925 18.87041936 23.6523807 18.76763588 33.41887665 18.66066074 C38.43824837 18.60582066 43.45762616 18.55246939 48.47705078 18.50268555 C53.33357576 18.45445985 58.19004127 18.40210799 63.04649353 18.34705925 C64.88653556 18.32689563 66.72659371 18.30814485 68.56666565 18.29092598 C78.6377904 18.19568859 88.64674949 17.93488875 98.69287109 17.19580078 C103.00192823 16.94068017 107.20392583 17.08153957 111.5 17.4375 C112.23863281 17.48970703 112.97726562 17.54191406 113.73828125 17.59570312 C115.49288706 17.72103211 117.24658829 17.85894584 119 18 C118.505 10.575 118.505 10.575 118 3 C79.39 3 40.78 3 1 3 C0.67 2.01 0.34 1.02 0 0 Z " fill="#D5D593" transform="translate(266,119)"/>
<path d="M0 0 C0.66 0 1.32 0 2 0 C6.62796746 6.0588989 9.2103535 12.66116185 11 20 C11.18820312 20.62648438 11.37640625 21.25296875 11.5703125 21.8984375 C12.14499777 24.70917091 12.09364867 27.38432269 12.0625 30.25 C12.05347656 31.32765625 12.04445313 32.4053125 12.03515625 33.515625 C12.02355469 34.33546875 12.01195312 35.1553125 12 36 C11.21625 35.67 10.4325 35.34 9.625 35 C3.13698038 33.21020148 -3.43842509 33.61861581 -10 35 C-10.41485382 21.37896609 -7.93868749 12.68621051 -1 1 C-0.67 0.67 -0.34 0.34 0 0 Z " fill="#FBD05E" transform="translate(248,77)"/>
<path d="M0 0 C0.66 0.33 1.32 0.66 2 1 C2.92172374 3.76517121 3.12375838 5.38443871 3.12025452 8.233078 C3.12162918 9.09544571 3.12300385 9.95781342 3.12442017 10.84631348 C3.12082489 11.78930298 3.11722961 12.73229248 3.11352539 13.70385742 C3.11367142 14.6991597 3.11381744 15.69446198 3.1139679 16.71992493 C3.11327032 20.01512825 3.10548511 23.31027529 3.09765625 26.60546875 C3.09579152 28.88804595 3.09436788 31.17062355 3.09336853 33.45320129 C3.08954767 39.46525169 3.07972104 45.47727798 3.06866455 51.48931885 C3.05844118 57.62243321 3.05386892 63.75555145 3.04882812 69.88867188 C3.03809841 81.92579185 3.02102714 93.96289392 3 106 C1.02 106 -0.96 106 -3 106 C-2.91576411 92.47452811 -2.8209467 78.94917632 -2.71247292 65.42387581 C-2.66244435 59.1440974 -2.61611503 52.86433635 -2.578125 46.58447266 C-2.54135493 40.52845457 -2.49501786 34.47257952 -2.44193649 28.4166832 C-2.4233484 26.10175958 -2.40825693 23.78680526 -2.39665604 21.47183609 C-2.37986896 18.23904907 -2.35085251 15.00659281 -2.31884766 11.77392578 C-2.31668747 10.80863953 -2.31452728 9.84335327 -2.31230164 8.84881592 C-2.30113815 7.97099457 -2.28997467 7.09317322 -2.2784729 6.18875122 C-2.27294214 5.42366304 -2.26741138 4.65857487 -2.26171303 3.8703022 C-2 2 -2 2 0 0 Z " fill="#2F4A5E" transform="translate(357,156)"/>
<path d="M0 0 C0.33 0.66 0.66 1.32 1 2 C1.90253179 1.99861731 1.90253179 1.99861731 2.82329655 1.99720669 C17.47992155 1.97509924 32.13654557 1.95856299 46.79318333 1.94818783 C53.88108991 1.94303682 60.96898534 1.93601691 68.05688477 1.92456055 C74.89738508 1.91350936 81.73787381 1.90771501 88.57838249 1.90512276 C91.18784708 1.90327543 93.79731104 1.8996681 96.40677071 1.89426994 C100.06229139 1.88700873 103.71776427 1.88601121 107.37329102 1.88647461 C108.45151123 1.88287933 109.52973145 1.87928406 110.640625 1.87557983 C115.87143825 1.88275257 120.84672974 2.08410816 126 3 C126 6.96 126 10.92 126 15 C125.67 15 125.34 15 125 15 C125 11.7 125 8.4 125 5 C81.44 5 37.88 5 -7 5 C-6.34 9.29 -5.68 13.58 -5 18 C-5 19.65 -5 21.3 -5 23 C-7.46617602 18.23205969 -8.11580769 14.69657674 -8.0625 9.3125 C-8.05347656 8.13300781 -8.04445313 6.95351563 -8.03515625 5.73828125 C-8.02355469 4.83464844 -8.01195312 3.93101562 -8 3 C-5.36 3 -2.72 3 0 3 C0 2.01 0 1.02 0 0 Z " fill="#DB8178" transform="translate(298,260)"/>
<path d="M0 0 C0.82978363 -0.00073013 1.65956726 -0.00146027 2.51449585 -0.00221252 C5.2475604 0.00126114 7.97890445 0.04011036 10.71166992 0.0793457 C12.61023528 0.08867465 14.5088127 0.09579038 16.40739441 0.1007843 C21.39718024 0.11984769 26.38623489 0.16894292 31.37573242 0.2243042 C36.47003285 0.27551084 41.56445177 0.29830138 46.65893555 0.32348633 C56.64949065 0.37706219 66.63950379 0.46236714 76.62963867 0.56762695 C75.96963867 2.54762695 75.30963867 4.52762695 74.62963867 6.56762695 C74.29963867 6.56762695 73.96963867 6.56762695 73.62963867 6.56762695 C73.62963867 4.91762695 73.62963867 3.26762695 73.62963867 1.56762695 C46.89963867 1.56762695 20.16963867 1.56762695 -7.37036133 1.56762695 C-7.70036133 2.88762695 -8.03036133 4.20762695 -8.37036133 5.56762695 C-8.70036133 5.89762695 -9.03036133 6.22762695 -9.37036133 6.56762695 C-9.46839794 9.63952119 -9.50026945 12.68894685 -9.49061584 15.76124573 C-9.49147027 16.73806917 -9.49232469 17.71489261 -9.49320501 18.72131675 C-9.49486278 22.02109784 -9.48933361 25.320829 -9.48388672 28.62060547 C-9.48360488 30.97540282 -9.48376251 33.33020026 -9.48432922 35.68499756 C-9.48461735 42.10003064 -9.47871824 48.51504521 -9.47175527 54.93007398 C-9.46568082 60.94825841 -9.46513345 66.96644505 -9.46410339 72.98463201 C-9.46191256 84.90805245 -9.45525163 96.83146607 -9.44580078 108.75488281 C-9.43662747 120.34016892 -9.42954624 131.92545318 -9.42529297 143.51074219 C-9.42489888 144.58118602 -9.42489888 144.58118602 -9.42449684 145.67325497 C-9.42319184 149.25317736 -9.42192812 152.83309975 -9.42068493 156.41302216 C-9.41031134 186.13122829 -9.39261805 215.8494273 -9.37036133 245.56762695 C-10.03036133 245.56762695 -10.69036133 245.56762695 -11.37036133 245.56762695 C-11.37036133 166.69762695 -11.37036133 87.82762695 -11.37036133 6.56762695 C-12.03036133 6.23762695 -12.69036133 5.90762695 -13.37036133 5.56762695 C-9.34269927 0.54637855 -6.16202923 -0.14259241 0 0 Z " fill="#95D6DE" transform="translate(272.370361328125,139.432373046875)"/>
<path d="M0 0 C15.87225848 -0.07001433 31.74447542 -0.1229509 47.6168499 -0.15543652 C54.98631826 -0.17091963 62.35569079 -0.19203655 69.72509766 -0.22631836 C76.14666656 -0.25617673 82.56816609 -0.27556449 88.98980248 -0.28226548 C92.39150143 -0.28618385 95.79300185 -0.29542205 99.1946373 -0.31719017 C102.9877902 -0.33883508 106.78052617 -0.34197231 110.57373047 -0.34057617 C112.27412979 -0.35675491 112.27412979 -0.35675491 114.00888062 -0.3732605 C115.03815674 -0.36913651 116.06743286 -0.36501251 117.12789917 -0.36076355 C118.47463872 -0.36491162 118.47463872 -0.36491162 119.84858513 -0.36914349 C120.55855204 -0.24732614 121.26851894 -0.12550879 122 0 C124.1097676 3.1646514 124.25552605 3.97393773 124.265625 7.59765625 C124.26949219 8.92313477 124.26949219 8.92313477 124.2734375 10.27539062 C124.26570313 11.19513672 124.25796875 12.11488281 124.25 13.0625 C124.26160156 14.44791992 124.26160156 14.44791992 124.2734375 15.86132812 C124.27085937 16.74369141 124.26828125 17.62605469 124.265625 18.53515625 C124.26336914 19.343479 124.26111328 20.15180176 124.25878906 20.98461914 C124 23 124 23 122 25 C119.75341797 25.22705078 119.75341797 25.22705078 116.9921875 25.1953125 C116.00605469 25.18886719 115.01992188 25.18242187 114.00390625 25.17578125 C112.97136719 25.15902344 111.93882812 25.14226562 110.875 25.125 C109.83472656 25.11597656 108.79445313 25.10695312 107.72265625 25.09765625 C105.14820908 25.07403747 102.57421788 25.04110149 100 25 C100 24.34 100 23.68 100 23 C106.93 23 113.86 23 121 23 C121 16.4 121 9.8 121 3 C81.4 2.67 41.8 2.34 1 2 C0.67 1.34 0.34 0.68 0 0 Z " fill="#97D7DD" transform="translate(265,117)"/>
<path d="M0 0 C0.99 0.33 1.98 0.66 3 1 C3.33 2.65 3.66 4.3 4 6 C3.34 6 2.68 6 2 6 C2 39.99 2 73.98 2 109 C17.84 108.67 33.68 108.34 50 108 C50.33 105.69 50.66 103.38 51 101 C53 103 53 103 55 110 C36.85 110 18.7 110 0 110 C0 73.7 0 37.4 0 0 Z " fill="#87D3F1" transform="translate(147,152)"/>
<path d="M0 0 C0.88399947 0.00092179 1.76799894 0.00184359 2.67878628 0.00279331 C3.68985943 0.00141865 4.70093258 0.00004398 5.74264431 -0.00137234 C7.42038433 0.00402058 7.42038433 0.00402058 9.13201809 0.00952244 C10.30259258 0.00937641 11.47316708 0.00923038 12.67921352 0.00907993 C15.89807713 0.00965887 19.11689773 0.01468791 22.33575273 0.02165389 C25.6963417 0.02788826 29.05693143 0.02849129 32.41752529 0.0296793 C38.78529112 0.03279237 45.15303986 0.04100543 51.52079815 0.05102879 C58.76856499 0.06219068 66.01633263 0.06770057 73.26410592 0.07272422 C88.17703605 0.08318806 103.08995017 0.10078703 118.0028677 0.12304783 C118.0028677 0.78304783 118.0028677 1.44304783 118.0028677 2.12304783 C78.7328677 2.12304783 39.4628677 2.12304783 -0.9971323 2.12304783 C-0.9971323 8.39304783 -0.9971323 14.66304783 -0.9971323 21.12304783 C6.9228677 21.12304783 14.8428677 21.12304783 23.0028677 21.12304783 C23.0028677 21.45304783 23.0028677 21.78304783 23.0028677 22.12304783 C18.85704883 22.15191534 14.71125553 22.1698011 10.5653677 22.18554783 C8.78936184 22.19811619 8.78936184 22.19811619 6.97747707 22.21093845 C5.85277004 22.21416111 4.72806301 22.21738377 3.56927395 22.22070408 C2.00608425 22.2285593 2.00608425 22.2285593 0.41131496 22.23657322 C-1.9971323 22.12304783 -1.9971323 22.12304783 -2.9971323 21.12304783 C-3.09594027 19.64652119 -3.12792476 18.16537547 -3.1299448 16.68554783 C-3.13123386 15.79093845 -3.13252293 14.89632908 -3.13385105 13.97461033 C-3.12805027 12.56308689 -3.12805027 12.56308689 -3.1221323 11.12304783 C-3.12599949 10.1820322 -3.12986668 9.24101658 -3.13385105 8.27148533 C-3.13256199 7.37687595 -3.13127293 6.48226658 -3.1299448 5.56054783 C-3.12825291 4.32111423 -3.12825291 4.32111423 -3.12652683 3.05664158 C-2.94808855 0.39016769 -2.66677432 0.16430599 0 0 Z " fill="#B5D6B7" transform="translate(112.99713230133057,117.87695217132568)"/>
<path d="M0 0 C0.94746094 0.05220703 1.89492188 0.10441406 2.87109375 0.15820312 C5.16458938 0.28561955 7.45737446 0.42041907 9.75 0.5625 C9.75 1.2225 9.75 1.8825 9.75 2.5625 C-15.70296225 3.48270642 -41.12454064 3.69249311 -66.59246826 3.63116455 C-71.42817727 3.62068665 -76.26389214 3.6163162 -81.09960938 3.61132812 C-90.48308742 3.60080082 -99.86654081 3.58387926 -109.25 3.5625 C-108.92 2.9025 -108.59 2.2425 -108.25 1.5625 C-107.21176086 1.55219254 -106.17352173 1.54188507 -105.1038208 1.53126526 C-95.27712128 1.43313369 -85.4504795 1.33036563 -75.62387466 1.22316074 C-70.57300065 1.16820369 -65.52212065 1.11483016 -60.47119141 1.06518555 C-55.58874717 1.01713684 -50.70636564 0.96478487 -45.8239975 0.90955925 C-43.96948578 0.88931751 -42.114957 0.87057685 -40.26041412 0.85342598 C-31.3877062 0.77046498 -22.57714908 0.68759011 -13.74316406 -0.24169922 C-9.15325999 -0.6021676 -4.58749991 -0.28548819 0 0 Z " fill="#D6D395" transform="translate(375.25,136.4375)"/>
<path d="M0 0 C0.33 0 0.66 0 1 0 C1 35.97 1 71.94 1 109 C-16.82 109 -34.64 109 -53 109 C-52.10429689 104.52148447 -51.74999027 103.22824944 -49 100 C-48.34 100.33 -47.68 100.66 -47 101 C-48.20381448 103.49361571 -49.45428722 105.68143083 -51 108 C-34.17 108 -17.34 108 0 108 C-0.33 74.67 -0.66 41.34 -1 7 C-1.99 7.99 -2.98 8.98 -4 10 C-4 5.75354935 -2.18249194 3.61475228 0 0 Z " fill="#7EC5E2" transform="translate(138,153)"/>
<path d="M0 0 C1.79288798 3.58577596 1.00943183 7.79551793 0.9375 11.73828125 C0.99327113 14.64883733 1.32249904 17.17884366 2 20 C1.01 19.34 0.02 18.68 -1 18 C-3.99301918 17.84421518 -6.88736137 17.80715186 -9.87768555 17.86474609 C-10.78520569 17.87420761 -11.69272583 17.88366913 -12.62774658 17.89341736 C-15.63094086 17.92712692 -18.633725 17.97523368 -21.63671875 18.0234375 C-23.7175031 18.04960132 -25.7982989 18.0748686 -27.87910461 18.09927368 C-33.35863726 18.16595689 -38.83792943 18.24484289 -44.31726074 18.32623291 C-49.90737673 18.40712144 -55.49763389 18.4765212 -61.08789062 18.546875 C-72.05876299 18.68664431 -83.02941567 18.83929971 -94 19 C-94 18.34 -94 17.68 -94 17 C-82.9314741 16.06688064 -72.00915483 15.93088078 -60.91015625 16.12109375 C-59.22766362 16.14547197 -57.54516311 16.16931125 -55.86265564 16.19264221 C-51.48811684 16.25471882 -47.11372224 16.32399105 -42.73931885 16.39489746 C-38.2540123 16.46628274 -33.76860556 16.53067582 -29.28320312 16.59570312 C-20.52202428 16.72372637 -11.76098555 16.85937138 -3 17 C-3 12.71 -3 8.42 -3 4 C-2.34 4 -1.68 4 -1 4 C-0.67 2.68 -0.34 1.36 0 0 Z " fill="#DCC068" transform="translate(230,120)"/>
<path d="M0 0 C7.22322562 -0.19624228 14.05343025 0.51703311 21.1875 1.625 C22.87987793 1.88579346 22.87987793 1.88579346 24.60644531 2.15185547 C37.6981344 4.28242051 50.45807964 7.69639988 63 12 C63 12.33 63 12.66 63 13 C57.08739655 13.25706972 51.76081841 12.2982126 46 11 C46 10.34 46 9.68 46 9 C45.01257813 8.86722656 44.02515625 8.73445312 43.0078125 8.59765625 C41.08582031 8.33275391 41.08582031 8.33275391 39.125 8.0625 C37.84882813 7.88847656 36.57265625 7.71445313 35.2578125 7.53515625 C32 7 32 7 30 6 C28.88625 6 27.7725 6 26.625 6 C23.75065724 6 21.69123407 5.8611949 19 5 C19 4.34 19 3.68 19 3 C13.06 2.67 7.12 2.34 1 2 C0.67 1.34 0.34 0.68 0 0 Z " fill="#ABDDEC" transform="translate(268,0)"/>
<path d="M0 0 C0.99 0.33 1.98 0.66 3 1 C3.33 2.65 3.66 4.3 4 6 C3.34 5.67 2.68 5.34 2 5 C1.67 39.65 1.34 74.3 1 110 C0.67 110 0.34 110 0 110 C0 73.7 0 37.4 0 0 Z " fill="#66A2BD" transform="translate(147,152)"/>
<path d="M0 0 C9.17980085 16.25414279 13.61965668 43.66240324 11 62 C10.67 62 10.34 62 10 62 C9.96261719 61.07960937 9.92523438 60.15921875 9.88671875 59.2109375 C9.47932252 51.36656301 8.55481004 44.04060366 6.75390625 36.3671875 C5.80890367 32.14650241 5.19561247 27.90663112 4.625 23.62109375 C3.91406387 20.63960534 2.61888668 18.58423864 1 16 C-0.12739302 10.6705057 -0.11059311 5.41906236 0 0 Z " fill="#A3D4E6" transform="translate(488,171)"/>
<path d="M0 0 C1.95825873 -0.02694851 3.91662226 -0.04637218 5.875 -0.0625 C6.96554688 -0.07410156 8.05609375 -0.08570313 9.1796875 -0.09765625 C12 0 12 0 14 1 C14 1.66 14 2.32 14 3 C14.969375 2.979375 15.93875 2.95875 16.9375 2.9375 C20 3 20 3 21 4 C22.31311521 4.28247783 23.63753323 4.51305101 24.96484375 4.71875 C26.16463867 4.91017578 26.16463867 4.91017578 27.38867188 5.10546875 C28.22978516 5.23566406 29.07089844 5.36585938 29.9375 5.5 C31.59291603 5.7574242 33.24789053 6.01770878 34.90234375 6.28125 C35.63960693 6.39533203 36.37687012 6.50941406 37.13647461 6.62695312 C39 7 39 7 41 8 C43.0776117 8.36731257 45.16233732 8.6949534 47.25 9 C51.50764326 9.62785523 55.75687889 10.27995521 60 11 C60 11.33 60 11.66 60 12 C39.58507721 11.66077923 19.46330473 6.90940131 0 1 C0 0.67 0 0.34 0 0 Z " fill="#A3D9E8" transform="translate(171,488)"/>
<path d="M0 0 C2.31 0 4.62 0 7 0 C7 0.66 7 1.32 7 2 C27.79 1.67 48.58 1.34 70 1 C70 5.29 70 9.58 70 14 C69.34 14.33 68.68 14.66 68 15 C68 11.37 68 7.74 68 4 C34.835 3.505 34.835 3.505 1 3 C0.67 2.01 0.34 1.02 0 0 Z " fill="#E5786A" transform="translate(140,262)"/>
<path d="M0 0 C-0.33 0.66 -0.66 1.32 -1 2 C-2.93017578 2.39477539 -2.93017578 2.39477539 -5.4453125 2.59765625 C-6.35796875 2.67693359 -7.270625 2.75621094 -8.2109375 2.83789062 C-9.17257813 2.91201172 -10.13421875 2.98613281 -11.125 3.0625 C-21.16808339 3.00194165 -21.16808339 3.00194165 -30 6 C-32.41831079 6.40403485 -34.81936411 6.75352086 -37.25 7.0625 C-37.91902344 7.15337891 -38.58804688 7.24425781 -39.27734375 7.33789062 C-42.8749612 7.80791334 -46.37207529 8.10546293 -50 8 C-47.05998953 6.39466095 -44.33861551 5.49451379 -41.0703125 4.78125 C-39.63969482 4.46728271 -39.63969482 4.46728271 -38.18017578 4.14697266 C-37.17196777 3.93347168 -36.16375977 3.7199707 -35.125 3.5 C-34.0922998 3.28005371 -33.05959961 3.06010742 -31.99560547 2.83349609 C-10.13285146 -1.74704336 -10.13285146 -1.74704336 0 0 Z " fill="#A5D7E9" transform="translate(231,1)"/>
<path d="M0 0 C0 3 0 3 -1.35546875 4.5 C-5.6604798 8.02478517 -9.65742133 11.21914044 -15 13 C-15.33 13.99 -15.66 14.98 -16 16 C-17.8125 17 -17.8125 17 -20 18 C-20.66 18.556875 -21.32 19.11375 -22 19.6875 C-24 21 -24 21 -26.125 20.58203125 C-27.053125 20.29392578 -27.053125 20.29392578 -28 20 C-19.63813183 12.14338066 -10.11874919 5.41235422 0 0 Z " fill="#9CD1E5" transform="translate(116,38)"/>
<path d="M0 0 C0.66 0 1.32 0 2 0 C2.50531187 3.72846692 3.0033133 7.45787508 3.5 11.1875 C3.64308594 12.24259766 3.78617187 13.29769531 3.93359375 14.38476562 C4.06894531 15.40634766 4.20429687 16.42792969 4.34375 17.48046875 C4.53227539 18.88655396 4.53227539 18.88655396 4.72460938 20.32104492 C4.99004692 22.90317808 5.04936064 25.40650989 5 28 C5.66 28 6.32 28 7 28 C7.33 33.61 7.66 39.22 8 45 C6.49807295 41.9961459 5.66633063 40.11690783 5 36.98046875 C4.8359668 36.21250977 4.67193359 35.44455078 4.50292969 34.65332031 C4.33696289 33.83959961 4.17099609 33.02587891 4 32.1875 C3.73944824 30.92631348 3.73944824 30.92631348 3.47363281 29.63964844 C1.49361517 19.82128705 -0.15299077 10.04639412 0 0 Z " fill="#B0DDEB" transform="translate(0,270)"/>
<path d="M0 0 C0.99 0.33 1.98 0.66 3 1 C3 2.32 3 3.64 3 5 C3.66 5 4.32 5 5 5 C5.226875 5.721875 5.45375 6.44375 5.6875 7.1875 C7.25209743 10.54020878 9.36536173 12.43122769 12 15 C12.29261719 15.65742188 12.58523438 16.31484375 12.88671875 16.9921875 C14.30874235 19.55681954 15.7193928 20.2419765 18.3125 21.5625 C19.11300781 21.98402344 19.91351563 22.40554688 20.73828125 22.83984375 C21.48464844 23.22269531 22.23101562 23.60554688 23 24 C27.88135593 26.6440678 27.88135593 26.6440678 29 30 C23.37567461 28.78691021 20.99325182 27.30850854 17 23 C15.34051852 21.98812105 13.67419438 20.9873454 12 20 C9.6875 18.0625 9.6875 18.0625 8 16 C8 14.68 8 13.36 8 12 C7.38640625 11.7525 6.7728125 11.505 6.140625 11.25 C3.60505891 9.76937747 2.97031215 8.63432463 1.75 6 C1.41484375 5.29875 1.0796875 4.5975 0.734375 3.875 C0 2 0 2 0 0 Z " fill="#C99A99" transform="translate(296,290)"/>
<path d="M0 0 C0.33 0 0.66 0 1 0 C1.08333357 4.8333472 0.95261487 9.23692563 0 14 C1.03125 13.505 2.0625 13.01 3.125 12.5 C6.58939461 11.03617129 9.20335013 10.51532129 13 11 C16.375 12.5 16.375 12.5 19 14 C19.33 11.03 19.66 8.06 20 5 C20.33 5 20.66 5 21 5 C21 8.96 21 12.92 21 17 C20.21625 16.67 19.4325 16.34 18.625 16 C12.13698038 14.21020148 5.56157491 14.61861581 -1 16 C-1.02712153 14.083412 -1.04645097 12.1667127 -1.0625 10.25 C-1.07410156 9.18265625 -1.08570313 8.1153125 -1.09765625 7.015625 C-1.01510087 4.46631499 -0.74617558 2.42066409 0 0 Z " fill="#CFBE74" transform="translate(239,96)"/>
<path d="M0 0 C3.01414197 0.91125222 5.61857172 1.74571448 8.25 3.5 C16.82228028 8.17578924 27.14976194 7.24442631 36.625 7.125 C38.02473314 7.11494398 39.42447331 7.10582279 40.82421875 7.09765625 C44.21632925 7.07426238 47.6080706 7.04148173 51 7 C51 7.66 51 8.32 51 9 C46.14365099 9.0496911 41.28745224 9.08585664 36.4309082 9.10986328 C34.78114237 9.11987851 33.13139409 9.1334946 31.48168945 9.15087891 C29.10102995 9.17532542 26.72060653 9.18652803 24.33984375 9.1953125 C23.24566383 9.21079636 23.24566383 9.21079636 22.12937927 9.22659302 C17.38680589 9.22761619 13.50583078 8.49418829 9 7 C9 6.34 9 5.68 9 5 C7.35 5 5.7 5 4 5 C4 4.34 4 3.68 4 3 C2.68 3 1.36 3 0 3 C0 2.01 0 1.02 0 0 Z " fill="#A7C1D2" transform="translate(323,320)"/>
<path d="M0 0 C2 2 2 2 4 9 C-13.82 9 -31.64 9 -50 9 C-50 8.67 -50 8.34 -50 8 C-33.83 7.67 -17.66 7.34 -1 7 C-0.67 4.69 -0.34 2.38 0 0 Z " fill="#A4CBE2" transform="translate(198,253)"/>
<path d="M0 0 C0.99 0.33 1.98 0.66 3 1 C1.79618552 3.49361571 0.54571278 5.68143083 -1 8 C16.16 8 33.32 8 51 8 C51 8.33 51 8.66 51 9 C33.18 9 15.36 9 -3 9 C-2.24872886 5.24364431 -1.75994274 3.16789693 0 0 Z " fill="#A4CAE2" transform="translate(88,253)"/>
<path d="M0 0 C2.73461287 1.0743122 3.98686008 1.98310178 5.81640625 4.3359375 C8.07497653 7.09147405 10.28403729 8.88873627 13.1875 10.9375 C14.62609375 11.96230469 14.62609375 11.96230469 16.09375 13.0078125 C19.47661043 15.32670876 22.91861954 17.5369496 26.41796875 19.67578125 C26.94003906 20.11277344 27.46210937 20.54976563 28 21 C28 21.99 28 22.98 28 24 C17.78556666 17.85553429 8.02274087 10.8900642 0 2 C0 1.34 0 0.68 0 0 Z " fill="#A3D2E1" transform="translate(83,435)"/>
<path d="M0 0 C0.33 0 0.66 0 1 0 C0.70790471 5.64717569 -0.32794808 10.15696666 -2.375 15.4375 C-5.52053129 23.76176107 -6.77507997 32.21642708 -8 41 C-8.66 41 -9.32 41 -10 41 C-9.50603709 33.53316642 -8.0758743 26.58847668 -6.125 19.375 C-5.74021484 17.89773437 -5.74021484 17.89773437 -5.34765625 16.390625 C-3.85977938 10.78304885 -2.13923288 5.39291641 0 0 Z " fill="#A5CBDA" transform="translate(13,166)"/>
<path d="M0 0 C0 0.66 0 1.32 0 2 C-11.55 2 -23.1 2 -35 2 C-28.21626099 -4.78373901 -9.03675644 -0.56003507 0 0 Z " fill="#EBCE71" transform="translate(385,137)"/>
<path d="M0 0 C1.32 0.66 2.64 1.32 4 2 C3.69078116 3.45903258 3.37751201 4.91720722 3.0625 6.375 C2.88847656 7.18710938 2.71445313 7.99921875 2.53515625 8.8359375 C2 11 2 11 1 13 C0.01 13 -0.98 13 -2 13 C-2.33 13.99 -2.66 14.98 -3 16 C-3.185625 15.071875 -3.185625 15.071875 -3.375 14.125 C-3.87197356 11.80879168 -3.87197356 11.80879168 -6 10 C-5.34 10 -4.68 10 -4 10 C-3.71125 9.0925 -3.4225 8.185 -3.125 7.25 C-2.23468224 4.67797092 -1.28505587 2.38653234 0 0 Z " fill="#2F4C61" transform="translate(88,240)"/>
<path d="M0 0 C0.99 0.33 1.98 0.66 3 1 C3.05790353 4.29159316 3.09356261 7.58305603 3.125 10.875 C3.14175781 11.81214844 3.15851563 12.74929687 3.17578125 13.71484375 C3.18222656 14.61074219 3.18867188 15.50664062 3.1953125 16.4296875 C3.20578613 17.25710449 3.21625977 18.08452148 3.22705078 18.93701172 C3 21 3 21 1 23 C-1.24658203 23.22705078 -1.24658203 23.22705078 -4.0078125 23.1953125 C-4.99394531 23.18886719 -5.98007812 23.18242187 -6.99609375 23.17578125 C-8.54490234 23.15064453 -8.54490234 23.15064453 -10.125 23.125 C-11.16527344 23.11597656 -12.20554687 23.10695312 -13.27734375 23.09765625 C-15.85179092 23.07403747 -18.42578212 23.04110149 -21 23 C-21 22.34 -21 21.68 -21 21 C-14.07 21 -7.14 21 0 21 C0 14.07 0 7.14 0 0 Z " fill="#97D5DD" transform="translate(386,119)"/>
<path d="M0 0 C0.99 0.33 1.98 0.66 3 1 C3.70211894 2.65204456 4.36971413 4.31923769 5 6 C5.66 6.33 6.32 6.66 7 7 C7 7.66 7 8.32 7 9 C7.66 9 8.32 9 9 9 C13 15.75 13 15.75 13 18 C13.66 18 14.32 18 15 18 C16.02611949 19.65071396 17.02308143 21.31970006 18 23 C19.58245275 24.75149165 19.58245275 24.75149165 21 26 C18 26 18 26 16.4921875 24.70703125 C3.20555822 9.14177714 3.20555822 9.14177714 0 0 Z " fill="#A4D3E1" transform="translate(40,386)"/>
<path d="M0 0 C3.2578125 -0.29296875 3.2578125 -0.29296875 7.125 -0.1875 C9.04699219 -0.14689453 9.04699219 -0.14689453 11.0078125 -0.10546875 C11.99523437 -0.07066406 12.98265625 -0.03585938 14 0 C14.66 1.65 15.32 3.3 16 5 C15.34 5 14.68 5 14 5 C14 4.01 14 3.02 14 2 C9.71 2 5.42 2 1 2 C0.67 3.32 0.34 4.64 0 6 C-0.495 6.474375 -0.99 6.94875 -1.5 7.4375 C-3.46573078 9.48513623 -3.62668561 11.23747349 -4 14 C-4.99 14.33 -5.98 14.66 -7 15 C-5.50767549 9.14549614 -3.31761803 4.97642704 0 0 Z " fill="#65705C" transform="translate(350,139)"/>
<path d="M0 0 C-4.06983454 2.71322303 -8.22693195 3.51735889 -12.9375 4.6875 C-13.84435547 4.92533203 -14.75121094 5.16316406 -15.68554688 5.40820312 C-16.56146484 5.62798828 -17.43738281 5.84777344 -18.33984375 6.07421875 C-19.13769287 6.27619873 -19.93554199 6.47817871 -20.75756836 6.6862793 C-23.15349966 7.02147491 -24.71775964 6.7450949 -27 6 C-24.44000453 3.44000453 -22.43762569 3.6322069 -18.953125 3.28125 C-16.65821485 2.95078294 -15.03498712 2.08532646 -13 1 C-8.62734659 0.02829924 -4.47016195 -0.08940324 0 0 Z " fill="#A5D4E4" transform="translate(325,489)"/>
<path d="M0 0 C3.15702316 3.90869534 6 7.8614939 6 13 C3.69 13 1.38 13 -1 13 C-1 9.98146205 -0.85049285 7.22918921 -0.5 4.25 C-0.4071875 3.45078125 -0.314375 2.6515625 -0.21875 1.828125 C-0.1465625 1.22484375 -0.074375 0.6215625 0 0 Z " fill="#415465" transform="translate(418,250)"/>
<path d="M0 0 C7.99441599 1.19601499 15.397691 3.26688367 23 6 C23 6.33 23 6.66 23 7 C17.08739655 7.25706972 11.76081841 6.2982126 6 5 C6 4.34 6 3.68 6 3 C3.03 2.505 3.03 2.505 0 2 C0 1.34 0 0.68 0 0 Z " fill="#9CCFE1" transform="translate(308,6)"/>
<path d="M0 0 C0.99 0 1.98 0 3 0 C3.19335938 0.56589844 3.38671875 1.13179688 3.5859375 1.71484375 C3.84632812 2.44832031 4.10671875 3.18179687 4.375 3.9375 C4.63023438 4.66839844 4.88546875 5.39929688 5.1484375 6.15234375 C5.85271413 8.18682116 5.85271413 8.18682116 8 9 C8.73075648 11.3140622 9.40138258 13.64828869 10 16 C10.66 16 11.32 16 12 16 C12 17.65 12 19.3 12 21 C8.74951058 17.15651589 6.21217131 13.17601471 3.75 8.8125 C3.38648438 8.18408203 3.02296875 7.55566406 2.6484375 6.90820312 C0 2.25352444 0 2.25352444 0 0 Z " fill="#94CEE4" transform="translate(24,358)"/>
<path d="M0 0 C0.66 0 1.32 0 2 0 C3.58035774 3.16071549 3.22575346 6.53274504 3.25 10 C3.2809375 11.10601562 3.2809375 11.10601562 3.3125 12.234375 C3.328125 14.375 3.328125 14.375 3 18 C2.01 18.66 1.02 19.32 0 20 C0 13.4 0 6.8 0 0 Z " fill="#6C7057" transform="translate(265,120)"/>
<path d="M0 0 C0.66 0 1.32 0 2 0 C1.94000853 2.60662951 1.85303451 5.20751889 1.75 7.8125 C1.73582031 8.55048828 1.72164062 9.28847656 1.70703125 10.04882812 C1.45812087 15.54974762 1.45812087 15.54974762 -1.046875 18.01171875 C-2.01367188 18.50091797 -2.01367188 18.50091797 -3 19 C-2.88534579 16.77027727 -2.75785234 14.54121247 -2.625 12.3125 C-2.55539063 11.07113281 -2.48578125 9.82976562 -2.4140625 8.55078125 C-2.03577906 5.30682228 -1.38020024 2.93432815 0 0 Z " fill="#99D5D6" transform="translate(237,96)"/>
<path d="M0 0 C2.64 0 5.28 0 8 0 C4.83549542 2.10966972 1.58870478 3.65727699 -1.875 5.1875 C-2.79345703 5.61579102 -2.79345703 5.61579102 -3.73046875 6.05273438 C-7.55525129 7.7358025 -9.99187116 8.31826291 -14 7 C-14 6.67 -14 6.34 -14 6 C-12.5459375 5.5359375 -12.5459375 5.5359375 -11.0625 5.0625 C-8.15934208 4.30476658 -8.15934208 4.30476658 -7 3 C-5.00041636 2.95919217 -2.99954746 2.95745644 -1 3 C-0.67 2.01 -0.34 1.02 0 0 Z " fill="#90CBDC" transform="translate(350,476)"/>
<path d="M0 0 C1.32 0.66 2.64 1.32 4 2 C3.67 2.66 3.34 3.32 3 4 C2.90199932 6.24825087 2.87025236 8.49961924 2.875 10.75 C2.87242188 11.96171875 2.86984375 13.1734375 2.8671875 14.421875 C2.98922639 17.70974633 3.37658319 20.77406537 4 24 C0.38638269 20.27717996 0.23255826 16.36708224 -0.25 11.4375 C-0.34023437 10.66986328 -0.43046875 9.90222656 -0.5234375 9.11132812 C-0.89102519 5.71114196 -1.09333499 3.28000497 0 0 Z " fill="#9CC0D2" transform="translate(74,256)"/>
<path d="M0 0 C0.66 0 1.32 0 2 0 C5 5.625 5 5.625 5 9 C2.69 9 0.38 9 -2 9 C-2.25 3.375 -2.25 3.375 0 0 Z " fill="#425060" transform="translate(205,254)"/>
<path d="M0 0 C-7.43243811 4.95495874 -16.44538301 4.25428162 -25.0625 4.125 C-26.21427734 4.11597656 -27.36605469 4.10695313 -28.55273438 4.09765625 C-31.36871193 4.07428714 -34.18424158 4.04152565 -37 4 C-37 3.67 -37 3.34 -37 3 C-36.35562988 2.98541748 -35.71125977 2.97083496 -35.04736328 2.95581055 C-32.07269801 2.88044526 -29.09904905 2.7840837 -26.125 2.6875 C-25.11179688 2.66494141 -24.09859375 2.64238281 -23.0546875 2.61914062 C-17.00487055 2.4058458 -11.84650424 1.62729339 -6.15185547 -0.46557617 C-3.71622312 -1.07047738 -2.34846742 -0.80205398 0 0 Z " fill="#B0B6C1" transform="translate(169,325)"/>
<path d="M0 0 C1.32 0.33 2.64 0.66 4 1 C-0.15514659 5.87778078 -5.97591199 8.99197066 -12 11 C-11.5 8.625 -11.5 8.625 -10 6 C-7.96424234 5.29697352 -5.9592576 4.9298977 -3.84375 4.53515625 C-1.76819301 4.1405669 -1.76819301 4.1405669 -0.5 1.875 C-0.335 1.25625 -0.17 0.6375 0 0 Z " fill="#8CD0E6" transform="translate(391,453)"/>
<path d="M0 0 C1.9375 0.25 1.9375 0.25 4 1 C6 4 6 4 6 7 C3.36 7 0.72 7 -2 7 C-1.125 1.125 -1.125 1.125 0 0 Z " fill="#465364" transform="translate(292,256)"/>
<path d="M0 0 C6.49142565 0.42335385 11.33492989 2.91099799 17 6 C15.421875 7.2109375 15.421875 7.2109375 13 8 C10.5453777 6.98613427 8.50453746 5.97276745 6.25 4.625 C5.64800781 4.28210938 5.04601562 3.93921875 4.42578125 3.5859375 C2.94227881 2.73822182 1.46998513 1.87094495 0 1 C0 0.67 0 0.34 0 0 Z " fill="#94D0E0" transform="translate(127,468)"/>
<path d="M0 0 C3.34373475 0.55728913 6.03312999 1.35173889 9 3 C9 3.66 9 4.32 9 5 C10.65 5 12.3 5 14 5 C14 5.66 14 6.32 14 7 C14.721875 7.12375 15.44375 7.2475 16.1875 7.375 C18.95721894 7.9904931 21.3970354 8.88444374 24 10 C21.69132303 10.79856676 20.44453805 11.15765061 18.10546875 10.328125 C17.15607422 9.79445313 17.15607422 9.79445313 16.1875 9.25 C13.59456467 7.84750152 11.04220145 6.55202876 8.3125 5.4375 C5.35099218 4.15231736 2.68372654 2.78915103 0 1 C0 0.67 0 0.34 0 0 Z " fill="#D18D85" transform="translate(104,316)"/>
<path d="M0 0 C0.71285156 0.39832031 1.42570312 0.79664063 2.16015625 1.20703125 C7.35606755 4.08121637 12.48553046 6.79421218 18 9 C18 9.33 18 9.66 18 10 C16.35 10 14.7 10 13 10 C13 9.34 13 8.68 13 8 C12.236875 8.226875 11.47375 8.45375 10.6875 8.6875 C9.800625 8.790625 8.91375 8.89375 8 9 C6.5 7.8125 6.5 7.8125 5 6 C4.113125 5.319375 3.22625 4.63875 2.3125 3.9375 C1.549375 3.298125 0.78625 2.65875 0 2 C0 1.34 0 0.68 0 0 Z " fill="#A3C6D9" transform="translate(101,315)"/>
<path d="M0 0 C0.97683252 2.59098869 1.11350885 3.70278605 0.109375 6.33203125 C-0.33921875 7.15058594 -0.7878125 7.96914062 -1.25 8.8125 C-3.38050292 12.81832025 -5.26855361 16.80807716 -7 21 C-7.66 21 -8.32 21 -9 21 C-6.76686274 13.55620912 -3.59727921 6.88023305 0 0 Z " fill="#98C7D3" transform="translate(27,134)"/>
<path d="M0 0 C0.66 0 1.32 0 2 0 C0.59510534 3.6970912 -1.05503922 7.14747703 -2.9375 10.625 C-3.44152344 11.56601562 -3.94554687 12.50703125 -4.46484375 13.4765625 C-5.81462417 15.69528553 -7.07286658 17.28571415 -9 19 C-9 17.68 -9 16.36 -9 15 C-8.34 15 -7.68 15 -7 15 C-6.01 11.7 -5.02 8.4 -4 5 C-3.34 5 -2.68 5 -2 5 C-2 4.34 -2 3.68 -2 3 C-1.34 3 -0.68 3 0 3 C0 2.01 0 1.02 0 0 Z " fill="#94CADB" transform="translate(474,358)"/>
<path d="M0 0 C0.66 0 1.32 0 2 0 C2.33 0.99 2.66 1.98 3 3 C1.68 3 0.36 3 -1 3 C-1.12117187 3.59167969 -1.24234375 4.18335937 -1.3671875 4.79296875 C-3.26225843 13.72895704 -3.26225843 13.72895704 -5 17 C-5.99 17.33 -6.98 17.66 -8 18 C-7.37793965 13.80109263 -5.93005303 10.51731506 -4 6.75 C-3.195625 5.16445312 -3.195625 5.16445312 -2.375 3.546875 C-1 1 -1 1 0 0 Z " fill="#E3D37F" transform="translate(248,77)"/>
<path d="M0 0 C0.99 3.63 1.98 7.26 3 11 C0.61405803 9.80702902 0.16265153 8.85642735 -1.125 6.5625 C-1.47820312 5.94503906 -1.83140625 5.32757813 -2.1953125 4.69140625 C-3 3 -3 3 -3 1 C-6.0109362 3.0072908 -6.63016497 3.83884224 -8 7 C-9.33332095 4.3333581 -8.67102033 2.83319697 -8 0 C-5 -1 -5 -1 0 0 Z " fill="#A4D4D4" transform="translate(253,76)"/>
<path d="M0 0 C0.66 0.99 1.32 1.98 2 3 C1.09827532 4.17825358 0.17798498 5.34231577 -0.75 6.5 C-1.26046875 7.1496875 -1.7709375 7.799375 -2.296875 8.46875 C-4 10 -4 10 -8 10 C-8 10.66 -8 11.32 -8 12 C-8.66 11.67 -9.32 11.34 -10 11 C-8.89718873 9.72799029 -7.79269231 8.45744147 -6.6875 7.1875 C-6.07261719 6.47980469 -5.45773438 5.77210937 -4.82421875 5.04296875 C-3.26665665 3.29863261 -1.67341125 1.63221959 0 0 Z " fill="#8BCDE0" transform="translate(74,71)"/>
<path d="M0 0 C2 3 2 3 1.64453125 5.26953125 C0.07802268 10.05731095 -1.55209986 14.57046641 -4 19 C-5.11327758 15.69752556 -4.88862386 13.86974219 -3.6875 10.625 C-3.40648437 9.84511719 -3.12546875 9.06523437 -2.8359375 8.26171875 C-2.42214844 7.14216797 -2.42214844 7.14216797 -2 6 C-1.608125 4.824375 -1.21625 3.64875 -0.8125 2.4375 C-0.4103125 1.2309375 -0.4103125 1.2309375 0 0 Z " fill="#92CADA" transform="translate(482,336)"/>
<path d="M0 0 C1.61869439 4.04673598 0.50121738 7.04224509 -1 11 C-2.53210804 13.1880418 -4.17637729 15.03240707 -6 17 C-6.625 15.1875 -6.625 15.1875 -7 13 C-6.34 12.01 -5.68 11.02 -5 10 C-4.34 10 -3.68 10 -3 10 C-3 8.68 -3 7.36 -3 6 C-2.34 6 -1.68 6 -1 6 C-0.67 4.02 -0.34 2.04 0 0 Z " fill="#A4C3D5" transform="translate(207,282)"/>
<path d="M0 0 C0.14285714 7.42857143 0.14285714 7.42857143 -1 11 C-1.66 11 -2.32 11 -3 11 C-3.33 11.66 -3.66 12.32 -4 13 C-5.125 5.375 -5.125 5.375 -4 2 C-1 0 -1 0 0 0 Z " fill="#31485E" transform="translate(338,171)"/>
<path d="M0 0 C0.33 0.66 0.66 1.32 1 2 C-2.69833224 5.92247359 -6.42422217 9.1189547 -11 12 C-11.99 11.67 -12.98 11.34 -14 11 C-12.41728767 9.72839334 -10.83380365 8.45774715 -9.25 7.1875 C-8.36828125 6.47980469 -7.4865625 5.77210938 -6.578125 5.04296875 C-4.41007071 3.32494998 -2.22271099 1.64626024 0 0 Z " fill="#9DCBE5" transform="translate(191,309)"/>
<path d="M0 0 C0.66 0.99 1.32 1.98 2 3 C1.01 3.495 1.01 3.495 0 4 C0.33 4.66 0.66 5.32 1 6 C0.34 6 -0.32 6 -1 6 C-0.67 6.99 -0.34 7.98 0 9 C-0.804375 9.2475 -1.60875 9.495 -2.4375 9.75 C-5.171081 10.72238859 -5.171081 10.72238859 -5.8125 13.125 C-5.874375 13.74375 -5.93625 14.3625 -6 15 C-6.66 15 -7.32 15 -8 15 C-6.62712658 11.30123909 -4.93644547 8.0485524 -2.875 4.6875 C-2.33617187 3.80449219 -1.79734375 2.92148438 -1.2421875 2.01171875 C-0.83226562 1.34785156 -0.42234375 0.68398437 0 0 Z " fill="#92CFE4" transform="translate(36,119)"/>
<path d="M0 0 C0.66 0.99 1.32 1.98 2 3 C0.63875 3.99 0.63875 3.99 -0.75 5 C-4.44506865 8.03836213 -6.16700722 11.65472888 -8 16 C-9.32 15.67 -10.64 15.34 -12 15 C-8 10 -4 5 0 0 Z " fill="#A2CEDD" transform="translate(61,84)"/>
<path d="M0 0 C6.09761253 5.54011653 7.49843454 13.10034395 8 21 C5.8480563 17.77208445 5.79913557 16.71599191 6 13 C5.34 13 4.68 13 4 13 C4 11.68 4 10.36 4 9 C3.34 9 2.68 9 2 9 C0.14223235 5.86501708 -0.20140476 3.62528568 0 0 Z " fill="#DAD38A" transform="translate(251,80)"/>
<path d="M0 0 C0 3.96130371 -1.34877125 4.82914401 -4 7.6875 C-4.7425 8.49574219 -5.485 9.30398437 -6.25 10.13671875 C-6.8275 10.75160156 -7.405 11.36648437 -8 12 C-9.32 11.67 -10.64 11.34 -12 11 C-10.71034824 9.62437146 -9.37310707 8.29233607 -8 7 C-7.34 7 -6.68 7 -6 7 C-6 6.34 -6 5.68 -6 5 C-4.04072937 3.2856382 -2.04119788 1.61594832 0 0 Z " fill="#90CADE" transform="translate(87,59)"/>
<path d="M0 0 C0.33 0 0.66 0 1 0 C1.56776223 18.31558904 1.56776223 18.31558904 -2 26 C-2.66 26.33 -3.32 26.66 -4 27 C-3.79503906 26.22398437 -3.59007812 25.44796875 -3.37890625 24.6484375 C-1.31205068 16.36123671 -0.37053912 8.52239969 0 0 Z " fill="#AABBCD" transform="translate(424,261)"/>
<path d="M0 0 C0 0.33 0 0.66 0 1 C-0.82242187 0.89300781 -1.64484375 0.78601563 -2.4921875 0.67578125 C-10.08117689 -0.1392026 -15.89289266 0.16036569 -23 3 C-20.84483354 -0.23274968 -19.79782493 -0.73898602 -16.13671875 -1.65234375 C-10.468378 -2.57461491 -5.07164184 -2.93805459 0 0 Z " fill="#4E5D57" transform="translate(258,112)"/>
<path d="M0 0 C0.66 1.32 1.32 2.64 2 4 C1.67 4.33 1.34 4.66 1 5 C1.66 5.33 2.32 5.66 3 6 C3 6.66 3 7.32 3 8 C0.36 8 -2.28 8 -5 8 C-5 7.01 -5 6.02 -5 5 C-4.01 5 -3.02 5 -2 5 C-1.34 3.35 -0.68 1.7 0 0 Z " fill="#4D4E5A" transform="translate(81,255)"/>
<path d="M0 0 C1.02891637 3.0867491 0.98947742 4.13934736 0.44140625 7.23046875 C0.30283203 8.03291016 0.16425781 8.83535156 0.02148438 9.66210938 C-0.12998047 10.49548828 -0.28144531 11.32886719 -0.4375 12.1875 C-0.58509766 13.03248047 -0.73269531 13.87746094 -0.88476562 14.74804688 C-1.24996003 16.8331891 -1.6241243 18.91675673 -2 21 C-2.66 21 -3.32 21 -4 21 C-3.54034292 13.69303751 -2.11670277 7.00242552 0 0 Z " fill="#AED8E5" transform="translate(7,186)"/>
<path d="M0 0 C3.1137596 1.49921758 6.03799023 3.22279414 9 5 C10.11375 5.495 10.11375 5.495 11.25 6 C13 7 13 7 14 10 C7.56596618 8.81823869 4.14404677 6.02575885 0 1 C0 0.67 0 0.34 0 0 Z " fill="#D58A86" transform="translate(311,310)"/>
<path d="M0 0 C2.83512349 2.42539086 2.98759776 2.90532642 3.51171875 6.90625 C3.58466921 8.43688321 3.64275034 9.96828291 3.6875 11.5 C3.72166016 12.27214844 3.75582031 13.04429688 3.79101562 13.83984375 C3.92072167 16.89455336 4 19.94248852 4 23 C1.30337775 20.30337775 1.64279443 18.64018714 1.4375 14.875 C1.12676677 9.87552434 0.68094919 4.96120126 0 0 Z " fill="#9ACDCB" transform="translate(258,93)"/>
<path d="M0 0 C0.66 0 1.32 0 2 0 C2 0.66 2 1.32 2 2 C3.65 1.67 5.3 1.34 7 1 C7 3.64 7 6.28 7 9 C4.03595495 6.19195732 1.55500981 3.81684226 0 0 Z " fill="#E67A6E" transform="translate(87,298)"/>
<path d="M0 0 C-0.33 0.99 -0.66 1.98 -1 3 C-5.62 3 -10.24 3 -15 3 C-15 2.34 -15 1.68 -15 1 C-12.8750734 0.83240016 -10.75005624 0.66594799 -8.625 0.5 C-7.44164062 0.4071875 -6.25828125 0.314375 -5.0390625 0.21875 C-3.36213157 0.09804546 -1.68126944 0 0 0 Z " fill="#EDC868" transform="translate(151,136)"/>
<path d="M0 0 C2.31 1.65 4.62 3.3 7 5 C6.67 5.66 6.34 6.32 6 7 C4.125 7.5625 4.125 7.5625 2 8 C1.01 8.33 0.02 8.66 -1 9 C-0.67 6.03 -0.34 3.06 0 0 Z " fill="#3D586F" transform="translate(259,113)"/>
<path d="M0 0 C0.33 0.99 0.66 1.98 1 3 C0.34 3.66 -0.32 4.32 -1 5 C-1.28875 5.7425 -1.5775 6.485 -1.875 7.25 C-3.19763804 10.48311522 -5.00597038 13.14189088 -7 16 C-7.66 15.67 -8.32 15.34 -9 15 C-8.06652642 13.24784894 -7.1280468 11.49836437 -6.1875 9.75 C-5.66542969 8.77546875 -5.14335938 7.8009375 -4.60546875 6.796875 C-3.21034812 4.36644588 -1.73804039 2.19212301 0 0 Z " fill="#9BD0DF" transform="translate(48,100)"/>
<path d="M0 0 C2.31 0 4.62 0 7 0 C7 0.66 7 1.32 7 2 C10.3 2 13.6 2 17 2 C17 2.33 17 2.66 17 3 C11.72 3 6.44 3 1 3 C0.67 2.01 0.34 1.02 0 0 Z " fill="#D46B5F" transform="translate(140,262)"/>
<path d="M0 0 C0.66 0 1.32 0 2 0 C2.433125 1.2065625 2.433125 1.2065625 2.875 2.4375 C3.73262568 5.1326468 3.73262568 5.1326468 6 6 C5.67 8.31 5.34 10.62 5 13 C2.2946129 8.94191935 0 4.95110601 0 0 Z " fill="#98CEDD" transform="translate(14,334)"/>
<path d="M0 0 C0.33 0.66 0.66 1.32 1 2 C-0.07518118 4.44332726 -1.19808566 6.76754523 -2.4375 9.125 C-2.77587891 9.78371094 -3.11425781 10.44242188 -3.46289062 11.12109375 C-4.30149926 12.75106547 -5.14984811 14.37601909 -6 16 C-7.33332095 13.3333581 -6.67102033 11.83319697 -6 9 C-5.34 9 -4.68 9 -4 9 C-4 7.35 -4 5.7 -4 4 C-3.01 4 -2.02 4 -1 4 C-0.67 2.68 -0.34 1.36 0 0 Z " fill="#6FB0CC" transform="translate(105,200)"/>
<path d="M0 0 C0.6875 1.625 0.6875 1.625 1 4 C-0.3988758 7.26404354 -2.03033187 10.04549781 -4 13 C-4.66 13 -5.32 13 -6 13 C-4.58707905 8.1725201 -2.57025846 4.2837641 0 0 Z " fill="#42738C" transform="translate(325,189)"/>
<path d="M0 0 C4.23431576 3.60700972 6.4692099 8.14586161 9 13 C8.01 13 7.02 13 6 13 C5.34 11.02 4.68 9.04 4 7 C3.34 7 2.68 7 2 7 C0 4 0 4 0 0 Z " fill="#A3CFDE" transform="translate(448,96)"/>
<path d="M0 0 C0 0.66 0 1.32 0 2 C-5.10334017 3.905247 -9.46342706 5.42589023 -15 5 C-12.37575342 3.25050228 -10.44272784 2.34610019 -7.5 1.375 C-6.7265625 1.11460938 -5.953125 0.85421875 -5.15625 0.5859375 C-3 0 -3 0 0 0 Z " fill="#A5CDDF" transform="translate(181,9)"/>
<path d="M0 0 C5.77378925 0.4811491 9.95859836 2.18467181 15 5 C15 5.33 15 5.66 15 6 C8.89357521 6.78287497 4.99540421 4.10825151 0 1 C0 0.67 0 0.34 0 0 Z " fill="#D28E8B" transform="translate(325,320)"/>
<path d="M0 0 C3.44621549 3.44621549 5.05150753 8.25753764 6 13 C5.34 13 4.68 13 4 13 C3.67 12.34 3.34 11.68 3 11 C2.01 10.67 1.02 10.34 0 10 C0 6.7 0 3.4 0 0 Z " fill="#9BCDE1" transform="translate(292,283)"/>
<path d="M0 0 C0.66 0 1.32 0 2 0 C0.50829734 4.9723422 -1.60457417 9.41845739 -4 14 C-4.9113287 11.47942631 -5.08517871 10.26674385 -4.2578125 7.67578125 C-3.88398437 6.89589844 -3.51015625 6.11601562 -3.125 5.3125 C-2.75632812 4.52488281 -2.38765625 3.73726562 -2.0078125 2.92578125 C-1 1 -1 1 0 0 Z " fill="#3B5E74" transform="translate(124,176)"/>
<path d="M0 0 C0.99 0.495 0.99 0.495 2 1 C2.33 1.99 2.66 2.98 3 4 C3.495 4.4125 3.99 4.825 4.5 5.25 C6.76247456 7.88955365 6.68138743 10.62270673 7 14 C6.566875 13.401875 6.13375 12.80375 5.6875 12.1875 C4.14556427 10.01367155 4.14556427 10.01367155 2.375 8.6875 C0.24225918 6.07004536 0.30950144 3.28071531 0 0 Z " fill="#5789A0" transform="translate(153,162)"/>
<path d="M0 0 C0.66 0 1.32 0 2 0 C1.39644592 3.85025879 0.23227397 6.86101159 -1.5625 10.3125 C-2.01753906 11.19550781 -2.47257813 12.07851562 -2.94140625 12.98828125 C-3.29074219 13.65214844 -3.64007813 14.31601563 -4 15 C-5.04449911 11.86650268 -4.93423645 11.01031744 -4 8 C-3.34 8 -2.68 8 -2 8 C-1.855625 7.236875 -1.71125 6.47375 -1.5625 5.6875 C-1 3 -1 3 0 0 Z " fill="#84CDE9" transform="translate(132,141)"/>
<path d="M0 0 C3.44428265 1.44781793 5.36130962 3.27694609 7.75 6.125 C8.36359375 6.84945312 8.9771875 7.57390625 9.609375 8.3203125 C10.29773438 9.15175781 10.29773438 9.15175781 11 10 C10.34 10.66 9.68 11.32 9 12 C8.67 11.01 8.34 10.02 8 9 C7.34 9 6.68 9 6 9 C5.62875 8.1028125 5.62875 8.1028125 5.25 7.1875 C3.83555909 4.71222841 2.27139812 3.66569196 0 2 C0 1.34 0 0.68 0 0 Z " fill="#A1CFDE" transform="translate(437,85)"/>
<path d="M0 0 C0 0.66 0 1.32 0 2 C-1.40751221 2.86916887 -2.8264521 3.71985149 -4.25 4.5625 C-5.03890625 5.03816406 -5.8278125 5.51382812 -6.640625 6.00390625 C-9.30844625 7.13022151 -10.34501768 7.0169313 -13 6 C-11.21118264 4.99491199 -9.41885304 3.99607264 -7.625 3 C-6.62726563 2.443125 -5.62953125 1.88625 -4.6015625 1.3125 C-2 0 -2 0 0 0 Z " fill="#95CDDC" transform="translate(140,25)"/>
<path d="M0 0 C2.52394612 3.12488567 4.39701907 6.31314387 6 10 C5.67 10.66 5.34 11.32 5 12 C2.5 10.5 2.5 10.5 0 8 C-0.45442324 5.19861435 -0.23849927 2.86199125 0 0 Z " fill="#7EC1DE" transform="translate(409,248)"/>
<path d="M0 0 C2.09797355 2.09797355 2.96787972 3.75609656 4.1875 6.4375 C4.55230469 7.21996094 4.91710937 8.00242188 5.29296875 8.80859375 C6 11 6 11 5 14 C1.93757784 9.15939723 0.46588495 5.70709064 0 0 Z " fill="#93C4D2" transform="translate(475,140)"/>
<path d="M0 0 C0.99 0.33 1.98 0.66 3 1 C3.1546875 2.11375 3.1546875 2.11375 3.3125 3.25 C4.04857303 6.19429211 5.18104443 7.62744926 7 10 C7 10.99 7 11.98 7 13 C6.34 13 5.68 13 5 13 C4.15930585 11.39967863 3.32768495 9.79458829 2.5 8.1875 C1.80390625 6.84751953 1.80390625 6.84751953 1.09375 5.48046875 C0 3 0 3 0 0 Z " fill="#84CDE9" transform="translate(366,141)"/>
<path d="M0 0 C3.91939465 3.80411834 7.49102731 7.81576108 11 12 C7.64861297 10.43975092 5.61063945 8.61063945 3 6 C2.01 5.67 1.02 5.34 0 5 C0 3.35 0 1.7 0 0 Z " fill="#A9BFCB" transform="translate(88,301)"/>
<path d="M0 0 C0.66 0.33 1.32 0.66 2 1 C1.58225916 3.42289685 1.30387062 4.70879065 -0.5 6.4375 C-2.46573078 8.48513623 -2.62668561 10.23747349 -3 13 C-3.99 13.33 -4.98 13.66 -6 14 C-4.85520071 9.50886433 -3.54638745 5.87493742 -1 2 C-0.67 1.34 -0.34 0.68 0 0 Z " fill="#436E85" transform="translate(349,140)"/>
<path d="M0 0 C4.50802601 1.25805377 7.4912812 2.90407165 11 6 C9.35 6 7.7 6 6 6 C6 5.34 6 4.68 6 4 C4.35 3.67 2.7 3.34 1 3 C0.67 2.01 0.34 1.02 0 0 Z " fill="#98CEDB" transform="translate(362,26)"/>
<path d="M0 0 C0.33 0.99 0.66 1.98 1 3 C-2.28804981 5.91227269 -4.59885603 7.49701212 -9 8 C-6.78189589 4.61447267 -4.52377014 2.94734666 -1 1 C-0.67 0.67 -0.34 0.34 0 0 Z " fill="#9BCCDF" transform="translate(404,310)"/>
<path d="M0 0 C0.33 0 0.66 0 1 0 C1.0809313 2.60478883 1.14045434 5.20706653 1.1875 7.8125 C1.21263672 8.55048828 1.23777344 9.28847656 1.26367188 10.04882812 C1.33834499 15.54974762 1.33834499 15.54974762 -0.51171875 18.01171875 C-1.24841797 18.50091797 -1.24841797 18.50091797 -2 19 C-1.84660156 18.32582031 -1.69320312 17.65164063 -1.53515625 16.95703125 C-0.91516143 13.53122048 -0.6647426 10.16106553 -0.4375 6.6875 C-0.35371094 5.43324219 -0.26992187 4.17898438 -0.18359375 2.88671875 C-0.12300781 1.93410156 -0.06242188 0.98148437 0 0 Z " fill="#A4BED3" transform="translate(210,262)"/>
<path d="M0 0 C0.33 0.99 0.66 1.98 1 3 C1.66 3 2.32 3 3 3 C3 5.31 3 7.62 3 10 C2.01 9.67 1.02 9.34 0 9 C-1.125 2.25 -1.125 2.25 0 0 Z " fill="#32485B" transform="translate(174,193)"/>
<path d="M0 0 C1.98 0.495 1.98 0.495 4 1 C3.67 2.65 3.34 4.3 3 6 C1.68 6 0.36 6 -1 6 C-0.67 4.02 -0.34 2.04 0 0 Z " fill="#30495E" transform="translate(375,170)"/>
<path d="M0 0 C1.38609004 3.15020465 0.89180331 4.31918022 -0.25 7.6875 C-2 11 -2 11 -5 12 C-3.68938409 7.76570244 -2.05643741 3.92592596 0 0 Z " fill="#80C8E2" transform="translate(131,166)"/>
<path d="M0 0 C2.475 0.99 2.475 0.99 5 2 C5 2.66 5 3.32 5 4 C6.32 4.66 7.64 5.32 9 6 C9 6.99 9 7.98 9 9 C7.87105124 8.06725891 6.74699124 7.12859878 5.625 6.1875 C4.99851562 5.66542969 4.37203125 5.14335937 3.7265625 4.60546875 C2 3 2 3 0 0 Z " fill="#92CBD9" transform="translate(69,423)"/>
<path d="M0 0 C0.66 0 1.32 0 2 0 C3.75747614 4.50353262 4.19294408 8.17639811 4 13 C1.12420019 8.68630028 0 5.19265239 0 0 Z " fill="#A7CEDD" transform="translate(8,315)"/>
<path d="M0 0 C2.56687367 3.8503105 1.83288724 5.58569763 1 10 C0.01 10 -0.98 10 -2 10 C-1.34 6.7 -0.68 3.4 0 0 Z " fill="#90D6F0" transform="translate(2,221)"/>
<path d="M0 0 C0.99 0 1.98 0 3 0 C1.68938409 4.23429756 0.05643741 8.07407404 -2 12 C-3.33332095 9.3333581 -2.67102033 7.83319697 -2 5 C-1.34 5 -0.68 5 0 5 C0 3.35 0 1.7 0 0 Z " fill="#406F89" transform="translate(347,156)"/>
<path d="M0 0 C4.29 0 8.58 0 13 0 C12.34 1.98 11.68 3.96 11 6 C10.67 6 10.34 6 10 6 C10 4.35 10 2.7 10 1 C6.7 1 3.4 1 0 1 C0 0.67 0 0.34 0 0 Z " fill="#8FCDDE" transform="translate(336,140)"/>
<path d="M0 0 C0 0.66 0 1.32 0 2 C-2.66666667 3.33333333 -5.33333333 4.66666667 -8 6 C-10.125 5.0625 -10.125 5.0625 -12 4 C-10.56570999 3.32645501 -9.12742943 2.66140299 -7.6875 2 C-6.88699219 1.62875 -6.08648437 1.2575 -5.26171875 0.875 C-3 0 -3 0 0 0 Z " fill="#95C7D5" transform="translate(158,17)"/>
<path d="M0 0 C1.08667969 0.01804687 2.17335938 0.03609375 3.29296875 0.0546875 C4.54013672 0.08949219 4.54013672 0.08949219 5.8125 0.125 C5.8125 0.455 5.8125 0.785 5.8125 1.125 C0.50526568 2.55205634 -3.72641111 3.5252792 -9.1875 2.125 C-5.66070901 -0.22619399 -4.15870515 -0.08943452 0 0 Z " fill="#92D2E8" transform="translate(278.1875,496.875)"/>
<path d="M0 0 C3.06393013 -0.25532751 4.63233212 -0.21861333 7.3125 1.375 C7.869375 1.91125 8.42625 2.4475 9 3 C9 3.66 9 4.32 9 5 C6.03 4.01 3.06 3.02 0 2 C0 1.34 0 0.68 0 0 Z " fill="#93CCDB" transform="translate(144,476)"/>
<path d="M0 0 C1.32 0.33 2.64 0.66 4 1 C1.47211993 3.79872437 -0.20411134 5.45773019 -4 6 C-4 5.34 -4 4.68 -4 4 C-3.34 4 -2.68 4 -2 4 C-1.34 2.68 -0.68 1.36 0 0 Z " fill="#99D4E5" transform="translate(391,453)"/>
<path d="M0 0 C2.46301423 2.46301423 2.76766521 4.27360036 3.625 7.625 C3.88539062 8.62789063 4.14578125 9.63078125 4.4140625 10.6640625 C4.60742188 11.43492187 4.80078125 12.20578125 5 13 C3.046875 11.82421875 3.046875 11.82421875 1 10 C0.390625 7.51953125 0.390625 7.51953125 0.25 4.8125 C0.19328125 3.91144531 0.1365625 3.01039063 0.078125 2.08203125 C0.05234375 1.39496094 0.0265625 0.70789063 0 0 Z " fill="#ADBFCF" transform="translate(78,281)"/>
<path d="M0 0 C0.66 0.99 1.32 1.98 2 3 C1.125 5.6875 1.125 5.6875 0 8 C-0.66 8 -1.32 8 -2 8 C-2 8.66 -2 9.32 -2 10 C-2.66 10 -3.32 10 -4 10 C-3.67 8.68 -3.34 7.36 -3 6 C-2.34 6 -1.68 6 -1 6 C-0.67 4.02 -0.34 2.04 0 0 Z " fill="#6FB1CC" transform="translate(314,227)"/>
<path d="M0 0 C0.66 0 1.32 0 2 0 C0.85485202 5.41342681 -0.34012809 7.9342948 -5 11 C-3.55049545 7.2089881 -1.84827434 3.6125362 0 0 Z " fill="#7EC3E0" transform="translate(337,182)"/>
<path d="M0 0 C0.66 0 1.32 0 2 0 C0.68938409 4.23429756 -0.94356259 8.07407404 -3 12 C-3.88336837 9.5332355 -4.1312406 8.36140628 -3.22265625 5.859375 C-2.83980469 5.16328125 -2.45695312 4.4671875 -2.0625 3.75 C-1.68222656 3.04359375 -1.30195313 2.3371875 -0.91015625 1.609375 C-0.60980469 1.07828125 -0.30945313 0.5471875 0 0 Z " fill="#84C7E3" transform="translate(336,163)"/>
<path d="M0 0 C0.33 1.32 0.66 2.64 1 4 C-0.32 3.67 -1.64 3.34 -3 3 C-3.66 4.65 -4.32 6.3 -5 8 C-5.33 7.34 -5.66 6.68 -6 6 C-6.66 5.67 -7.32 5.34 -8 5 C-4.04 2.525 -4.04 2.525 0 0 Z " fill="#8DD1E6" transform="translate(126,32)"/>
<path d="M0 0 C0.66 0.66 1.32 1.32 2 2 C0 4 0 4 -2.8203125 4.1953125 C-3.91085937 4.17210937 -5.00140625 4.14890625 -6.125 4.125 C-7.22070312 4.10695313 -8.31640625 4.08890625 -9.4453125 4.0703125 C-10.28835938 4.04710937 -11.13140625 4.02390625 -12 4 C-12 3.67 -12 3.34 -12 3 C-11.38511719 2.95101563 -10.77023437 2.90203125 -10.13671875 2.8515625 C-9.32847656 2.77679688 -8.52023437 2.70203125 -7.6875 2.625 C-6.88699219 2.55539062 -6.08648437 2.48578125 -5.26171875 2.4140625 C-2.72775559 2.10435574 -2.72775559 2.10435574 0 0 Z " fill="#8BD6F1" transform="translate(298,492)"/>
<path d="M0 0 C0.99 0 1.98 0 3 0 C4.60355101 3.50776784 5.22036864 6.14354879 5 10 C2.35534962 6.8745041 1.15585285 3.91211733 0 0 Z " fill="#9BCBD7" transform="translate(24,358)"/>
<path d="M0 0 C1 2 1 2 0.1875 4.9375 C-1 8 -1 8 -3 11 C-3.66 11 -4.32 11 -5 11 C-4.34 9.02 -3.68 7.04 -3 5 C-2.34 5 -1.68 5 -1 5 C-0.67 3.35 -0.34 1.7 0 0 Z " fill="#71B4D1" transform="translate(100,229)"/>
<path d="M0 0 C0.33 0.66 0.66 1.32 1 2 C0.00664799 3.67063747 -0.99431758 5.33675599 -2 7 C-2.70670728 9.69254991 -2.70670728 9.69254991 -3 12 C-3.33 12 -3.66 12 -4 12 C-4 9.36 -4 6.72 -4 4 C-3.34 4 -2.68 4 -2 4 C-2 3.01 -2 2.02 -2 1 C-1.34 0.67 -0.68 0.34 0 0 Z " fill="#A6D6CC" transform="translate(243,84)"/>
<path d="M0 0 C0.66 1.32 1.32 2.64 2 4 C1.01 3.67 0.02 3.34 -1 3 C-0.67 2.01 -0.34 1.02 0 0 Z M-2 4 C-1.34 4.33 -0.68 4.66 0 5 C-3.465 7.97 -3.465 7.97 -7 11 C-5.38262276 7.76524552 -4.52370777 6.29427979 -2 4 Z " fill="#8FD7F3" transform="translate(63,83)"/>
<path d="M0 0 C3.53372712 1.96318174 6.24479785 4.04070881 9 7 C8.67 7.66 8.34 8.32 8 9 C7.01 8.34 6.02 7.68 5 7 C5 6.34 5 5.68 5 5 C4.01 4.67 3.02 4.34 2 4 C2 3.34 2 2.68 2 2 C1.34 2 0.68 2 0 2 C0 1.34 0 0.68 0 0 Z " fill="#8CC6D5" transform="translate(421,68)"/>
<path d="M0 0 C4.43090471 1.20842856 6.98112756 2.51668565 10 6 C5.75354935 6 3.61475228 4.18249194 0 2 C0 1.34 0 0.68 0 0 Z " fill="#A3D3E1" transform="translate(387,41)"/>
<path d="M0 0 C2.6855594 2.6855594 3.06049974 5.37621328 4 9 C2.35 8.67 0.7 8.34 -1 8 C-0.67 5.36 -0.34 2.72 0 0 Z " fill="#7CBEDA" transform="translate(198,253)"/>
<path d="M0 0 C0.33 1.32 0.66 2.64 1 4 C0.01 4.33 -0.98 4.66 -2 5 C-2.33 6.65 -2.66 8.3 -3 10 C-3.66 10 -4.32 10 -5 10 C-3.84414715 6.08788267 -2.64465038 3.1254959 0 0 Z " fill="#78BED9" transform="translate(345,167)"/>
<path d="M0 0 C2 3 2 3 2 5 C1.34 5 0.68 5 0 5 C-0.33 6.98 -0.66 8.96 -1 11 C-1.66 11 -2.32 11 -3 11 C-2.32829194 7.1936543 -1.27253436 3.64793184 0 0 Z " fill="#96C9D7" transform="translate(17,155)"/>
<path d="M0 0 C0.99 0.33 1.98 0.66 3 1 C1.79618552 3.49361571 0.54571278 5.68143083 -1 8 C-1.66 8 -2.32 8 -3 8 C-1.125 2.25 -1.125 2.25 0 0 Z " fill="#82C6E5" transform="translate(88,253)"/>
<path d="M0 0 C0.33 0 0.66 0 1 0 C0.88541307 1.43836751 0.75790884 2.87570966 0.625 4.3125 C0.55539062 5.11300781 0.48578125 5.91351563 0.4140625 6.73828125 C0 9 0 9 -2 12 C-2.17835515 7.45194365 -1.99785435 4.1205746 0 0 Z " fill="#A1D1E4" transform="translate(13,166)"/>
<path d="M0 0 C3.55780196 0.60990891 6.6828589 1.5783681 10 3 C7 5 7 5 5 5 C5 4.34 5 3.68 5 3 C3.35 2.67 1.7 2.34 0 2 C0 1.34 0 0.68 0 0 Z " fill="#94C5D2" transform="translate(344,18)"/>
<path d="M0 0 C0.66 0 1.32 0 2 0 C0.8141763 3.37503669 -0.27573689 5.64722731 -3 8 C-2.67 6.02 -2.34 4.04 -2 2 C-1.34 2 -0.68 2 0 2 C0 1.34 0 0.68 0 0 Z " fill="#A0D1E1" transform="translate(457,387)"/>
<path d="M0 0 C2.15377564 2.62198774 3.40072174 4.64404172 4 8 C3.01 8 2.02 8 1 8 C0.17361624 5.10765685 0 3.11257569 0 0 Z " fill="#7CC6E2" transform="translate(370,169)"/>
<path d="M0 0 C5.75 1.75 5.75 1.75 8 4 C6.68 4.33 5.36 4.66 4 5 C4 4.34 4 3.68 4 3 C2.68 2.67 1.36 2.34 0 2 C0 1.34 0 0.68 0 0 Z " fill="#94C9D8" transform="translate(354,22)"/>
<path d="M0 0 C6.625 -0.25 6.625 -0.25 10 2 C5.94568308 3.15837626 3.78187881 2.83691257 0 1 C0 0.67 0 0.34 0 0 Z " fill="#93C9DA" transform="translate(153,481)"/>
<path d="M0 0 C2.31 0.33 4.62 0.66 7 1 C7.33 2.32 7.66 3.64 8 5 C4.62496331 3.8141763 2.35277269 2.72426311 0 0 Z " fill="#8DCEE2" transform="translate(113,459)"/>
<path d="M0 0 C0.66 0 1.32 0 2 0 C0.75453595 3.73639216 -0.63404953 4.18756513 -4 6 C-4 4.68 -4 3.36 -4 2 C-2.68 2 -1.36 2 0 2 C0 1.34 0 0.68 0 0 Z " fill="#97D0DF" transform="translate(400,448)"/>
<path d="M0 0 C0.33 1.32 0.66 2.64 1 4 C-1.475 5.485 -1.475 5.485 -4 7 C-4.33 6.34 -4.66 5.68 -5 5 C-3.35 3.35 -1.7 1.7 0 0 Z " fill="#ACBFC8" transform="translate(197,301)"/>
<path d="M0 0 C0.95904856 3.83619425 0.91892116 5.32431536 0 9 C-0.99 9 -1.98 9 -3 9 C-2.01 6.03 -1.02 3.06 0 0 Z " fill="#7CBFDB" transform="translate(328,199)"/>
<path d="M0 0 C0.33 0 0.66 0 1 0 C1 2.31 1 4.62 1 7 C0.01 7 -0.98 7 -2 7 C-2 5.35 -2 3.7 -2 2 C-1.34 2 -0.68 2 0 2 C0 1.34 0 0.68 0 0 Z " fill="#344760" transform="translate(331,181)"/>
<path d="M0 0 C2.32472205 2.85306797 3.7508258 5.54074837 5 9 C3.0625 8.4375 3.0625 8.4375 1 7 C0.25 3.375 0.25 3.375 0 0 Z " fill="#97CBDF" transform="translate(457,109)"/>
<path d="M0 0 C0 0.66 0 1.32 0 2 C-0.99 2.66 -1.98 3.32 -3 4 C-4.19232613 6.05003955 -4.19232613 6.05003955 -5 8 C-6.33332095 5.3333581 -5.67102033 3.83319697 -5 1 C-2 0 -2 0 0 0 Z " fill="#ADD7C1" transform="translate(250,75)"/>
</svg>
